<?xml version="1.0" encoding="UTF-8"?>
<svg xmlns="http://www.w3.org/2000/svg" xmlns:xlink="http://www.w3.org/1999/xlink" width="15px" height="16px" viewBox="0 0 15 16" version="1.1">
<g id="surface1">
<path style=" stroke:none;fill-rule:nonzero;fill:rgb(70.588237%,74.509805%,99.607843%);fill-opacity:1;" d="M 6.59375 0.921875 L 6.59375 1.847656 L 6.488281 1.910156 L 6.382812 1.96875 L 6.375 2.28125 L 6.460938 2.363281 L 6.546875 2.449219 L 6.875 2.449219 L 7.046875 2.621094 L 7.046875 3.117188 L 6.933594 3.226562 C 6.824219 3.335938 6.824219 3.335938 6.824219 3.398438 C 6.820312 3.453125 6.816406 3.46875 6.78125 3.5 C 6.675781 3.601562 6.515625 3.535156 6.515625 3.386719 C 6.515625 3.34375 6.523438 3.328125 6.5625 3.292969 C 6.597656 3.257812 6.613281 3.25 6.660156 3.25 C 6.691406 3.25 6.730469 3.257812 6.746094 3.265625 C 6.769531 3.285156 6.777344 3.277344 6.871094 3.191406 L 6.96875 3.097656 L 6.96875 2.640625 L 6.902344 2.578125 L 6.832031 2.511719 L 6.511719 2.511719 L 6.402344 2.410156 L 6.296875 2.304688 L 6.300781 2.117188 L 6.304688 1.933594 L 6.515625 1.808594 L 6.515625 0.0117188 L 6.445312 0.0117188 C 6.402344 0.0117188 6.355469 0.015625 6.339844 0.0195312 L 6.308594 0.0273438 L 6.308594 1.683594 L 6.167969 1.816406 L 6.167969 2.34375 L 6.359375 2.527344 L 6.550781 2.714844 L 6.597656 2.6875 C 6.664062 2.648438 6.726562 2.652344 6.78125 2.703125 C 6.917969 2.824219 6.773438 3.027344 6.609375 2.945312 C 6.558594 2.917969 6.53125 2.878906 6.53125 2.832031 C 6.53125 2.796875 6.5 2.765625 6.316406 2.585938 L 6.101562 2.382812 L 6.101562 1.78125 L 6.234375 1.65625 L 6.234375 0.839844 C 6.234375 0.046875 6.234375 0.0234375 6.207031 0.0234375 C 6.136719 0.0234375 6.140625 -0.0195312 6.140625 0.75 L 6.140625 1.457031 L 6.089844 1.507812 L 6.039062 1.554688 L 6.039062 2.394531 L 6.199219 2.550781 L 6.363281 2.707031 L 6.363281 3.734375 L 6.476562 3.796875 C 6.578125 3.855469 6.59375 3.859375 6.632812 3.851562 C 6.738281 3.820312 6.847656 3.925781 6.824219 4.03125 C 6.800781 4.121094 6.6875 4.171875 6.601562 4.132812 C 6.539062 4.101562 6.511719 4.050781 6.519531 3.96875 L 6.527344 3.90625 L 6.414062 3.84375 L 6.296875 3.78125 L 6.296875 2.742188 L 6.128906 2.582031 L 5.960938 2.417969 L 5.960938 1.53125 L 6.078125 1.421875 L 6.078125 0.0351562 L 6.003906 0.0429688 C 5.960938 0.046875 5.914062 0.0546875 5.902344 0.0585938 L 5.871094 0.0625 L 5.871094 1.222656 C 5.871094 1.859375 5.867188 2.394531 5.863281 2.410156 C 5.851562 2.445312 5.945312 2.539062 6.070312 2.621094 C 6.230469 2.726562 6.261719 2.820312 6.175781 2.910156 C 6.136719 2.953125 6.125 2.957031 6.066406 2.957031 C 6.003906 2.957031 5.992188 2.953125 5.953125 2.910156 C 5.921875 2.875 5.910156 2.851562 5.910156 2.820312 C 5.910156 2.765625 5.9375 2.707031 5.976562 2.679688 C 6.007812 2.660156 6.007812 2.660156 5.980469 2.648438 C 5.964844 2.640625 5.917969 2.597656 5.875 2.554688 L 5.789062 2.472656 L 5.800781 2.101562 C 5.804688 1.898438 5.804688 1.355469 5.800781 0.898438 C 5.789062 0.140625 5.789062 0.0664062 5.769531 0.0703125 C 5.757812 0.0742188 5.71875 0.078125 5.6875 0.0820312 L 5.625 0.0898438 L 5.625 1.230469 L 5.691406 1.335938 L 5.753906 1.445312 L 5.753906 2.921875 L 5.933594 3.085938 C 6.03125 3.179688 6.132812 3.269531 6.15625 3.289062 C 6.195312 3.320312 6.199219 3.328125 6.199219 3.390625 C 6.199219 3.449219 6.195312 3.464844 6.167969 3.492188 C 6.070312 3.597656 5.898438 3.53125 5.898438 3.390625 C 5.898438 3.34375 5.902344 3.328125 5.941406 3.289062 L 5.988281 3.246094 L 5.832031 3.09375 L 5.675781 2.945312 L 5.675781 1.457031 L 5.613281 1.347656 L 5.546875 1.238281 L 5.546875 0.0976562 L 5.488281 0.105469 C 5.453125 0.109375 5.402344 0.117188 5.378906 0.125 L 5.335938 0.132812 L 5.332031 0.769531 L 5.328125 1.410156 L 5.378906 1.402344 C 5.472656 1.390625 5.558594 1.460938 5.558594 1.550781 C 5.558594 1.59375 5.523438 1.65625 5.484375 1.679688 C 5.414062 1.71875 5.308594 1.695312 5.273438 1.636719 C 5.261719 1.613281 5.261719 1.414062 5.261719 0.878906 C 5.265625 0.160156 5.265625 0.148438 5.238281 0.148438 C 5.191406 0.148438 4.722656 0.246094 4.644531 0.269531 C 4.628906 0.273438 4.640625 0.292969 4.683594 0.335938 L 4.746094 0.394531 L 4.746094 1.28125 L 5.191406 1.710938 L 5.636719 2.144531 L 5.636719 3.007812 L 5.753906 3.195312 L 5.753906 3.640625 L 5.859375 3.742188 L 5.960938 3.847656 L 6.039062 3.84375 C 6.113281 3.84375 6.121094 3.847656 6.164062 3.890625 C 6.21875 3.949219 6.222656 4.011719 6.175781 4.078125 C 6.097656 4.1875 5.917969 4.148438 5.902344 4.015625 C 5.894531 3.972656 5.875 3.949219 5.753906 3.828125 L 5.613281 3.695312 L 5.613281 3.238281 L 5.546875 3.128906 L 5.484375 3.015625 L 5.484375 2.179688 L 5.042969 1.757812 L 4.601562 1.332031 L 4.601562 0.457031 L 4.53125 0.386719 L 4.457031 0.316406 L 4.367188 0.339844 C 4.316406 0.355469 4.269531 0.367188 4.269531 0.371094 C 4.265625 0.375 4.308594 0.417969 4.363281 0.472656 L 4.460938 0.570312 L 4.460938 1.417969 L 4.90625 1.851562 L 5.351562 2.28125 L 5.351562 3.128906 L 5.464844 3.238281 C 5.566406 3.34375 5.574219 3.347656 5.574219 3.402344 C 5.574219 3.507812 5.476562 3.578125 5.378906 3.550781 C 5.28125 3.523438 5.234375 3.417969 5.285156 3.332031 L 5.3125 3.289062 L 5.210938 3.195312 L 5.210938 2.332031 L 4.765625 1.898438 L 4.320312 1.46875 L 4.320312 0.632812 L 4.101562 0.421875 L 3.976562 0.460938 C 3.910156 0.484375 3.847656 0.507812 3.84375 0.515625 C 3.839844 0.523438 3.933594 0.621094 4.050781 0.734375 L 4.265625 0.945312 L 4.265625 1.519531 L 4.46875 1.710938 L 4.667969 1.90625 L 4.667969 2.0625 L 4.710938 2.0625 C 4.769531 2.0625 4.808594 2.085938 4.84375 2.136719 C 4.917969 2.238281 4.839844 2.363281 4.707031 2.363281 C 4.660156 2.363281 4.644531 2.355469 4.605469 2.320312 C 4.566406 2.277344 4.5625 2.273438 4.570312 2.210938 C 4.574219 2.171875 4.582031 2.097656 4.585938 2.039062 L 4.59375 1.929688 L 4.390625 1.738281 L 4.191406 1.542969 L 4.191406 0.960938 L 3.753906 0.539062 L 3.710938 0.554688 C 3.691406 0.5625 3.671875 0.570312 3.671875 0.574219 C 3.671875 0.578125 3.773438 0.679688 3.898438 0.800781 L 4.125 1.019531 L 4.125 1.542969 L 4.320312 1.730469 L 4.511719 1.917969 L 4.511719 2.382812 L 4.589844 2.421875 C 4.660156 2.460938 4.675781 2.460938 4.792969 2.460938 L 4.921875 2.460938 L 5.03125 2.570312 L 5.148438 2.679688 L 5.148438 4.140625 L 5.21875 4.214844 L 5.292969 4.289062 L 7.597656 4.289062 L 7.695312 4.191406 L 7.796875 4.09375 L 7.78125 4.042969 C 7.769531 4 7.773438 3.984375 7.789062 3.945312 C 7.847656 3.828125 8.023438 3.835938 8.078125 3.957031 C 8.125 4.070312 8.003906 4.195312 7.886719 4.152344 C 7.859375 4.140625 7.84375 4.148438 7.738281 4.25 L 7.621094 4.363281 L 5.269531 4.363281 L 5.175781 4.269531 L 5.082031 4.179688 L 5.082031 2.71875 L 4.894531 2.539062 L 4.773438 2.539062 L 4.648438 2.535156 L 4.546875 2.476562 L 4.441406 2.417969 L 4.433594 1.941406 L 4.058594 1.582031 L 4.058594 1.042969 L 3.832031 0.820312 C 3.65625 0.65625 3.59375 0.601562 3.578125 0.609375 C 3.566406 0.609375 3.554688 0.617188 3.554688 0.617188 C 3.554688 0.621094 3.648438 0.710938 3.761719 0.820312 L 3.96875 1.019531 L 3.96875 1.644531 L 4.34375 2.003906 L 4.34375 2.355469 L 4.523438 2.527344 L 4.707031 2.695312 L 4.78125 2.691406 C 4.859375 2.683594 4.863281 2.6875 4.90625 2.730469 C 4.945312 2.765625 4.953125 2.78125 4.953125 2.824219 C 4.953125 2.894531 4.925781 2.941406 4.867188 2.96875 C 4.804688 2.996094 4.742188 2.984375 4.691406 2.9375 C 4.648438 2.894531 4.632812 2.847656 4.652344 2.792969 L 4.664062 2.753906 L 4.265625 2.386719 L 4.265625 2.019531 L 4.078125 1.835938 L 3.890625 1.65625 L 3.890625 1.042969 L 3.6875 0.847656 C 3.488281 0.652344 3.480469 0.648438 3.445312 0.664062 L 3.410156 0.675781 L 3.632812 0.890625 L 3.851562 1.105469 L 3.851562 1.707031 L 4.039062 1.886719 L 4.226562 2.070312 L 4.226562 2.429688 L 4.382812 2.582031 L 4.539062 2.730469 L 4.539062 3.703125 L 4.625 3.789062 L 4.710938 3.871094 L 4.757812 3.855469 C 4.816406 3.835938 4.871094 3.851562 4.917969 3.898438 C 4.980469 3.96875 4.957031 4.089844 4.871094 4.128906 C 4.816406 4.15625 4.796875 4.15625 4.738281 4.132812 C 4.675781 4.105469 4.640625 4.046875 4.648438 3.976562 L 4.65625 3.917969 L 4.558594 3.824219 L 4.460938 3.734375 L 4.460938 2.757812 L 4.304688 2.605469 L 4.152344 2.453125 L 4.152344 2.082031 L 3.964844 1.898438 L 3.777344 1.71875 L 3.777344 1.132812 L 3.339844 0.710938 L 3.207031 0.765625 L 3.414062 0.96875 L 3.621094 1.167969 L 3.621094 1.820312 L 3.816406 2.007812 L 4.007812 2.195312 L 4.007812 2.488281 C 4.007812 2.652344 4.015625 2.789062 4.019531 2.789062 C 4.023438 2.789062 4.039062 2.769531 4.050781 2.75 C 4.101562 2.667969 4.222656 2.65625 4.292969 2.722656 C 4.394531 2.820312 4.324219 2.976562 4.179688 2.976562 C 4.121094 2.976562 4.070312 2.941406 4.039062 2.886719 C 4.027344 2.859375 4.011719 2.851562 3.984375 2.851562 L 3.945312 2.851562 L 3.945312 2.230469 L 3.742188 2.039062 L 3.542969 1.84375 L 3.542969 1.195312 L 3.34375 1 C 3.160156 0.824219 3.140625 0.808594 3.109375 0.816406 C 3.074219 0.828125 3.082031 0.832031 3.292969 1.042969 L 3.515625 1.257812 L 3.515625 2.046875 L 3.558594 2.054688 C 3.664062 2.074219 3.71875 2.203125 3.65625 2.289062 C 3.570312 2.410156 3.375 2.355469 3.375 2.210938 C 3.375 2.164062 3.410156 2.085938 3.429688 2.085938 C 3.433594 2.085938 3.441406 1.90625 3.441406 1.683594 L 3.441406 1.28125 L 3.230469 1.078125 C 3.113281 0.964844 3.011719 0.875 3 0.875 C 2.988281 0.875 2.96875 0.886719 2.949219 0.898438 L 2.921875 0.917969 L 3.078125 1.070312 L 3.234375 1.21875 L 3.234375 2.269531 L 3.320312 2.355469 L 3.410156 2.4375 L 3.917969 2.4375 L 3.917969 3.082031 L 4.011719 3.171875 L 4.101562 3.257812 L 4.148438 3.246094 C 4.253906 3.21875 4.359375 3.316406 4.339844 3.421875 C 4.3125 3.566406 4.113281 3.589844 4.042969 3.457031 C 4.019531 3.417969 4.019531 3.402344 4.03125 3.359375 L 4.046875 3.304688 L 3.851562 3.117188 L 3.851562 2.8125 L 3.847656 2.507812 L 3.609375 2.503906 L 3.367188 2.5 L 3.261719 2.394531 L 3.15625 2.292969 L 3.15625 1.230469 L 3.007812 1.085938 C 2.863281 0.949219 2.859375 0.945312 2.824219 0.960938 L 2.792969 0.980469 L 3.089844 1.269531 L 3.089844 2.332031 L 3.324219 2.546875 L 3.554688 2.765625 L 3.554688 3.835938 L 3.601562 3.855469 C 3.679688 3.886719 3.714844 3.976562 3.679688 4.054688 C 3.609375 4.199219 3.382812 4.148438 3.386719 3.988281 C 3.386719 3.929688 3.414062 3.886719 3.460938 3.863281 L 3.492188 3.847656 L 3.492188 2.804688 L 3.253906 2.574219 L 3.011719 2.34375 L 3.011719 1.292969 L 2.730469 1.019531 L 2.683594 1.042969 C 2.660156 1.058594 2.636719 1.070312 2.636719 1.074219 C 2.636719 1.078125 2.695312 1.136719 2.765625 1.207031 L 2.898438 1.332031 L 2.898438 2.40625 L 3.179688 2.679688 L 3.179688 4.171875 L 3.296875 4.234375 L 3.414062 4.300781 L 3.859375 4.300781 L 3.960938 4.203125 L 4.0625 4.101562 L 4.042969 4.058594 C 4.015625 4.003906 4.015625 3.984375 4.039062 3.929688 C 4.0625 3.882812 4.128906 3.835938 4.183594 3.835938 C 4.238281 3.835938 4.304688 3.882812 4.328125 3.929688 C 4.351562 3.984375 4.351562 4.003906 4.324219 4.058594 C 4.296875 4.109375 4.242188 4.140625 4.179688 4.140625 C 4.136719 4.140625 4.117188 4.152344 4.015625 4.25 L 3.894531 4.363281 L 3.636719 4.363281 L 3.378906 4.359375 L 3.246094 4.289062 L 3.117188 4.21875 L 3.117188 2.71875 L 2.972656 2.582031 L 2.832031 2.445312 L 2.832031 1.367188 L 2.699219 1.238281 C 2.609375 1.152344 2.558594 1.113281 2.554688 1.125 C 2.546875 1.136719 2.585938 1.179688 2.664062 1.253906 L 2.78125 1.367188 L 2.78125 2.457031 L 2.898438 2.570312 C 2.960938 2.628906 3.011719 2.6875 3.011719 2.695312 C 3.011719 2.703125 3.023438 2.730469 3.039062 2.753906 C 3.101562 2.855469 3.03125 2.988281 2.910156 2.988281 C 2.828125 2.988281 2.753906 2.914062 2.753906 2.835938 C 2.753906 2.765625 2.820312 2.6875 2.882812 2.6875 C 2.898438 2.6875 2.910156 2.683594 2.910156 2.683594 C 2.910156 2.679688 2.867188 2.636719 2.8125 2.585938 L 2.714844 2.492188 L 2.714844 1.394531 L 2.597656 1.28125 C 2.472656 1.160156 2.480469 1.160156 2.390625 1.226562 L 2.359375 1.25 L 2.480469 1.363281 L 2.597656 1.480469 L 2.597656 3.09375 L 2.800781 3.289062 L 2.851562 3.265625 C 2.953125 3.226562 3.050781 3.289062 3.0625 3.398438 C 3.066406 3.457031 3.066406 3.464844 3.023438 3.503906 C 2.945312 3.578125 2.875 3.578125 2.796875 3.507812 C 2.757812 3.46875 2.753906 3.457031 2.753906 3.40625 C 2.757812 3.351562 2.757812 3.347656 2.640625 3.234375 L 2.523438 3.117188 L 2.523438 1.507812 L 2.410156 1.398438 C 2.308594 1.296875 2.300781 1.296875 2.269531 1.3125 L 2.234375 1.328125 L 2.28125 1.371094 L 2.328125 1.421875 L 2.328125 2.054688 L 2.367188 2.09375 C 2.476562 2.203125 2.394531 2.363281 2.238281 2.347656 C 2.15625 2.335938 2.109375 2.285156 2.109375 2.207031 C 2.109375 2.179688 2.117188 2.144531 2.125 2.128906 C 2.144531 2.09375 2.207031 2.050781 2.242188 2.050781 C 2.261719 2.050781 2.261719 2.027344 2.261719 1.753906 L 2.261719 1.453125 L 2.175781 1.375 L 2.085938 1.445312 L 1.992188 1.515625 L 1.992188 2.332031 L 2.1875 2.519531 C 2.292969 2.621094 2.390625 2.722656 2.398438 2.738281 C 2.457031 2.839844 2.378906 2.960938 2.261719 2.960938 C 2.105469 2.960938 2.046875 2.75 2.1875 2.679688 L 2.226562 2.660156 L 2.078125 2.515625 L 1.925781 2.367188 L 1.925781 1.972656 L 1.921875 1.574219 L 1.808594 1.667969 L 1.695312 1.765625 L 1.695312 1.914062 C 1.695312 2.050781 1.695312 2.0625 1.722656 2.070312 C 1.757812 2.078125 1.796875 2.148438 1.796875 2.199219 C 1.796875 2.351562 1.589844 2.40625 1.507812 2.273438 C 1.464844 2.203125 1.496094 2.09375 1.578125 2.0625 L 1.617188 2.046875 L 1.617188 1.945312 L 1.613281 1.84375 L 1.371094 2.085938 L 1.371094 2.382812 L 1.457031 2.460938 L 1.855469 2.460938 L 1.925781 2.574219 L 1.992188 2.6875 L 1.992188 3.082031 L 2.089844 3.175781 C 2.183594 3.269531 2.1875 3.269531 2.242188 3.265625 C 2.34375 3.253906 2.417969 3.320312 2.417969 3.421875 C 2.417969 3.484375 2.339844 3.5625 2.269531 3.5625 C 2.171875 3.5625 2.109375 3.5 2.109375 3.402344 C 2.109375 3.375 2.113281 3.347656 2.125 3.339844 C 2.136719 3.328125 2.117188 3.300781 2.027344 3.214844 L 1.914062 3.105469 L 1.914062 2.695312 L 1.863281 2.609375 L 1.808594 2.523438 L 1.414062 2.523438 L 1.355469 2.464844 L 1.292969 2.40625 L 1.292969 2.296875 C 1.292969 2.183594 1.292969 2.183594 1.265625 2.207031 C 1.242188 2.226562 1.242188 2.246094 1.242188 2.421875 L 1.242188 2.621094 L 1.324219 2.699219 C 1.386719 2.761719 1.410156 2.773438 1.445312 2.773438 C 1.476562 2.773438 1.492188 2.765625 1.503906 2.738281 C 1.535156 2.6875 1.582031 2.664062 1.648438 2.664062 C 1.699219 2.664062 1.714844 2.667969 1.753906 2.703125 C 1.789062 2.738281 1.796875 2.757812 1.796875 2.800781 C 1.796875 2.867188 1.765625 2.917969 1.710938 2.945312 C 1.652344 2.972656 1.585938 2.960938 1.539062 2.917969 C 1.511719 2.894531 1.492188 2.886719 1.433594 2.886719 L 1.363281 2.886719 L 1.136719 2.667969 L 1.136719 2.367188 L 1.097656 2.414062 L 1.058594 2.453125 L 1.058594 2.804688 L 1.304688 3.042969 L 1.550781 3.277344 L 1.59375 3.261719 C 1.738281 3.21875 1.859375 3.386719 1.765625 3.496094 C 1.671875 3.605469 1.507812 3.5625 1.492188 3.421875 C 1.484375 3.371094 1.46875 3.355469 1.21875 3.113281 L 0.957031 2.855469 L 0.949219 2.605469 L 0.863281 2.738281 L 0.777344 2.867188 L 0.777344 3.082031 L 0.867188 3.167969 C 0.945312 3.246094 0.960938 3.253906 1.011719 3.257812 C 1.125 3.265625 1.1875 3.390625 1.128906 3.488281 C 1.105469 3.523438 1.042969 3.5625 1.003906 3.5625 C 0.894531 3.5625 0.808594 3.433594 0.855469 3.347656 C 0.867188 3.328125 0.855469 3.308594 0.761719 3.21875 C 0.683594 3.140625 0.65625 3.105469 0.664062 3.089844 C 0.671875 3.074219 0.667969 3.074219 0.652344 3.09375 C 0.628906 3.121094 0.476562 3.417969 0.476562 3.433594 C 0.476562 3.441406 0.546875 3.511719 0.632812 3.589844 L 0.785156 3.738281 L 1.042969 3.734375 C 1.183594 3.730469 1.332031 3.722656 1.367188 3.722656 C 1.429688 3.71875 1.441406 3.722656 1.476562 3.761719 C 1.507812 3.792969 1.511719 3.8125 1.511719 3.863281 C 1.511719 3.917969 1.507812 3.933594 1.476562 3.960938 C 1.453125 3.984375 1.421875 4.003906 1.40625 4.007812 C 1.355469 4.019531 1.289062 4.003906 1.261719 3.976562 C 1.238281 3.953125 1.21875 3.949219 0.964844 3.949219 L 0.691406 3.949219 L 0.535156 3.800781 C 0.453125 3.71875 0.382812 3.652344 0.382812 3.652344 C 0.355469 3.6875 0.179688 4.234375 0.179688 4.277344 C 0.179688 4.296875 0.195312 4.300781 0.445312 4.300781 L 0.703125 4.300781 L 0.921875 4.511719 L 0.972656 4.484375 C 1.035156 4.453125 1.097656 4.460938 1.148438 4.511719 C 1.273438 4.632812 1.136719 4.828125 0.980469 4.757812 C 0.921875 4.730469 0.890625 4.683594 0.886719 4.621094 C 0.886719 4.578125 0.875 4.5625 0.773438 4.46875 L 0.660156 4.363281 L 0.414062 4.363281 L 0.160156 4.367188 L 0.148438 4.414062 C 0.132812 4.453125 0.078125 4.753906 0.0585938 4.875 L 0.0507812 4.929688 L 0.167969 4.820312 L 0.28125 4.710938 L 0.277344 4.636719 C 0.269531 4.582031 0.273438 4.558594 0.289062 4.53125 C 0.339844 4.460938 0.433594 4.441406 0.503906 4.492188 C 0.652344 4.585938 0.578125 4.777344 0.398438 4.761719 L 0.339844 4.753906 L 0.1875 4.898438 L 0.0390625 5.046875 L 0.0234375 5.171875 C 0.015625 5.246094 0.015625 5.304688 0.0195312 5.308594 C 0.0234375 5.316406 0.101562 5.242188 0.191406 5.152344 L 0.355469 4.988281 L 0.621094 4.988281 L 0.621094 5.667969 L 0.574219 5.710938 C 0.535156 5.753906 0.53125 5.761719 0.542969 5.792969 C 0.5625 5.84375 0.558594 5.890625 0.53125 5.929688 C 0.496094 5.980469 0.457031 6 0.390625 6 C 0.34375 6 0.324219 5.992188 0.289062 5.957031 C 0.253906 5.921875 0.246094 5.90625 0.246094 5.859375 C 0.246094 5.753906 0.316406 5.691406 0.425781 5.703125 C 0.472656 5.710938 0.484375 5.707031 0.519531 5.675781 L 0.554688 5.640625 L 0.554688 5.0625 L 0.382812 5.0625 L 0.199219 5.234375 C 0.0585938 5.367188 0.015625 5.417969 0.0078125 5.449219 C -0.0078125 5.503906 0.0078125 6.179688 0.0234375 6.207031 C 0.03125 6.222656 0.046875 6.210938 0.101562 6.15625 L 0.171875 6.085938 L 0.679688 6.085938 L 0.792969 5.976562 C 0.875 5.894531 0.90625 5.859375 0.90625 5.835938 C 0.90625 5.789062 0.960938 5.730469 1.019531 5.710938 C 1.113281 5.683594 1.214844 5.761719 1.214844 5.855469 C 1.214844 5.910156 1.171875 5.972656 1.113281 5.996094 C 1.070312 6.015625 1.0625 6.015625 1.007812 5.996094 L 0.949219 5.976562 L 0.835938 6.085938 L 0.71875 6.199219 L 0.210938 6.199219 L 0.171875 6.242188 L 0.128906 6.28125 L 0.128906 6.644531 C 0.128906 6.960938 0.132812 7.027344 0.15625 7.132812 C 0.195312 7.320312 0.1875 7.308594 0.246094 7.253906 C 0.304688 7.203125 0.308594 7.175781 0.273438 7.128906 C 0.222656 7.066406 0.25 6.957031 0.324219 6.917969 C 0.371094 6.894531 0.453125 6.894531 0.488281 6.921875 C 0.527344 6.945312 0.554688 7.003906 0.554688 7.054688 C 0.554688 7.105469 0.496094 7.179688 0.445312 7.191406 C 0.425781 7.199219 0.414062 7.210938 0.414062 7.222656 C 0.414062 7.234375 0.371094 7.285156 0.316406 7.335938 C 0.265625 7.386719 0.222656 7.433594 0.226562 7.441406 C 0.230469 7.449219 0.242188 7.488281 0.253906 7.53125 C 0.273438 7.601562 0.273438 7.601562 0.292969 7.578125 C 0.339844 7.511719 0.429688 7.496094 0.5 7.539062 C 0.59375 7.59375 0.601562 7.710938 0.515625 7.78125 C 0.476562 7.8125 0.464844 7.816406 0.40625 7.808594 C 0.367188 7.804688 0.335938 7.808594 0.335938 7.8125 C 0.335938 7.816406 0.34375 7.839844 0.351562 7.863281 L 0.363281 7.914062 L 0.550781 7.914062 L 0.671875 7.792969 L 0.671875 6.765625 L 0.582031 6.675781 L 0.488281 6.585938 L 0.429688 6.59375 C 0.316406 6.609375 0.246094 6.550781 0.246094 6.449219 C 0.246094 6.359375 0.292969 6.3125 0.382812 6.304688 C 0.445312 6.296875 0.453125 6.300781 0.496094 6.339844 C 0.539062 6.375 0.546875 6.390625 0.550781 6.445312 C 0.558594 6.507812 0.566406 6.515625 0.667969 6.613281 L 0.777344 6.71875 L 0.777344 7.84375 L 0.6875 7.929688 L 0.601562 8.011719 L 0.5 8.011719 C 0.445312 8.011719 0.402344 8.015625 0.402344 8.023438 C 0.402344 8.050781 0.433594 8.101562 0.449219 8.101562 C 0.484375 8.101562 0.542969 8.140625 0.5625 8.175781 C 0.589844 8.226562 0.585938 8.285156 0.554688 8.335938 L 0.527344 8.375 L 0.558594 8.453125 L 0.585938 8.523438 L 0.757812 8.523438 L 0.859375 8.625 C 0.953125 8.714844 0.96875 8.726562 0.992188 8.714844 C 1.09375 8.660156 1.230469 8.765625 1.210938 8.882812 C 1.191406 8.984375 1.042969 9.035156 0.957031 8.96875 C 0.910156 8.925781 0.886719 8.863281 0.902344 8.8125 C 0.914062 8.78125 0.910156 8.773438 0.824219 8.6875 C 0.738281 8.605469 0.726562 8.601562 0.675781 8.601562 C 0.644531 8.601562 0.621094 8.605469 0.621094 8.609375 C 0.621094 8.636719 0.816406 8.992188 0.914062 9.144531 C 1.007812 9.285156 1.027344 9.3125 1.066406 9.324219 C 1.132812 9.347656 1.175781 9.402344 1.175781 9.46875 C 1.175781 9.515625 1.1875 9.539062 1.230469 9.601562 L 1.285156 9.675781 L 1.339844 9.621094 L 1.398438 9.570312 L 1.398438 9.316406 L 1.347656 9.285156 C 1.21875 9.203125 1.273438 9.011719 1.429688 9.011719 C 1.476562 9.011719 1.496094 9.019531 1.535156 9.054688 C 1.578125 9.09375 1.585938 9.105469 1.585938 9.152344 C 1.585938 9.21875 1.550781 9.269531 1.496094 9.296875 C 1.460938 9.3125 1.460938 9.316406 1.460938 9.453125 L 1.460938 9.59375 L 1.398438 9.660156 C 1.363281 9.699219 1.332031 9.730469 1.332031 9.734375 C 1.332031 9.738281 1.371094 9.792969 1.414062 9.855469 L 1.496094 9.96875 L 2.582031 9.972656 L 3.664062 9.976562 L 3.773438 10.078125 L 3.878906 10.179688 L 3.878906 11.390625 L 3.910156 11.445312 L 3.945312 11.5 L 8.917969 11.5 L 8.992188 11.574219 L 9.070312 11.648438 L 10.195312 11.648438 L 10.382812 11.472656 L 10.566406 11.292969 L 10.566406 10.90625 L 10.785156 10.691406 L 11.011719 10.476562 L 12.070312 10.476562 L 12.1875 10.585938 L 12.304688 10.699219 L 12.777344 10.699219 L 12.863281 10.789062 L 12.949219 10.875 L 13.3125 10.875 L 13.414062 10.976562 C 13.5 11.054688 13.523438 11.074219 13.546875 11.066406 C 13.621094 11.046875 13.710938 11.109375 13.734375 11.191406 C 13.746094 11.234375 13.742188 11.25 13.726562 11.296875 C 13.671875 11.429688 13.480469 11.4375 13.417969 11.304688 C 13.394531 11.261719 13.394531 11.242188 13.417969 11.148438 C 13.421875 11.121094 13.410156 11.105469 13.347656 11.046875 L 13.269531 10.976562 L 12.914062 10.976562 L 12.828125 10.890625 L 12.742188 10.808594 L 12.503906 10.8125 L 12.269531 10.8125 L 12.144531 10.695312 L 12.019531 10.574219 L 11.050781 10.574219 L 10.863281 10.753906 L 10.679688 10.929688 L 10.679688 11.332031 L 10.234375 11.761719 L 9.03125 11.761719 L 8.953125 11.6875 L 8.878906 11.613281 L 3.882812 11.613281 L 3.832031 11.519531 L 3.777344 11.425781 L 3.777344 10.21875 L 3.707031 10.152344 L 3.640625 10.085938 L 1.578125 10.085938 L 1.660156 10.210938 L 1.742188 10.339844 L 2.582031 10.335938 L 3.417969 10.335938 L 3.492188 10.410156 L 3.570312 10.480469 L 3.570312 11.53125 L 3.742188 11.699219 L 3.910156 11.863281 L 8.84375 11.863281 L 8.933594 11.914062 L 9.023438 11.960938 L 10.3125 11.960938 L 10.59375 11.691406 L 10.875 11.417969 L 10.875 11.042969 L 11.058594 10.863281 L 11.242188 10.6875 L 12.070312 10.6875 L 12.289062 10.898438 L 12.679688 10.898438 L 12.78125 11 C 12.878906 11.09375 12.882812 11.097656 12.929688 11.089844 C 13.09375 11.070312 13.179688 11.273438 13.054688 11.382812 C 12.929688 11.496094 12.738281 11.371094 12.785156 11.210938 L 12.800781 11.15625 L 12.726562 11.085938 L 12.65625 11.011719 L 12.253906 11.011719 L 12.144531 10.90625 L 12.03125 10.800781 L 11.285156 10.800781 L 11.132812 10.9375 L 10.976562 11.078125 L 10.976562 11.46875 L 10.671875 11.765625 L 10.363281 12.0625 L 8.980469 12.0625 L 8.890625 12.011719 L 8.804688 11.960938 L 3.859375 11.960938 L 3.453125 11.570312 L 3.453125 10.515625 L 3.367188 10.4375 L 2.605469 10.4375 C 2.183594 10.4375 1.835938 10.441406 1.828125 10.449219 C 1.816406 10.453125 1.832031 10.488281 1.871094 10.554688 C 1.949219 10.6875 2.046875 10.898438 2.105469 11.050781 C 2.128906 11.113281 2.152344 11.171875 2.15625 11.171875 C 2.15625 11.175781 2.171875 11.167969 2.1875 11.15625 C 2.207031 11.136719 2.234375 11.132812 2.296875 11.132812 C 2.363281 11.132812 2.382812 11.136719 2.410156 11.164062 C 2.46875 11.210938 2.488281 11.257812 2.480469 11.328125 C 2.472656 11.382812 2.464844 11.398438 2.421875 11.441406 C 2.371094 11.484375 2.359375 11.488281 2.292969 11.488281 L 2.21875 11.488281 L 2.222656 11.664062 L 2.226562 11.835938 L 3.316406 11.835938 L 3.496094 12.011719 L 3.679688 12.1875 L 8.4375 12.1875 L 8.570312 12.261719 L 8.707031 12.335938 L 9.90625 12.335938 L 9.90625 13.238281 L 7.863281 13.238281 L 7.796875 13.199219 L 7.734375 13.160156 L 7.730469 12.894531 L 7.726562 12.632812 L 6.335938 12.625 L 6.335938 13.238281 L 5.410156 13.238281 L 5.179688 13.011719 L 4.945312 12.789062 L 2.242188 12.789062 L 2.195312 12.835938 C 2.15625 12.875 2.144531 12.894531 2.136719 12.949219 L 2.128906 13.015625 L 2.175781 12.96875 C 2.230469 12.914062 2.296875 12.902344 2.371094 12.929688 C 2.523438 12.984375 2.535156 13.179688 2.398438 13.261719 C 2.308594 13.3125 2.199219 13.28125 2.144531 13.191406 L 2.113281 13.144531 L 2.097656 13.257812 C 2.089844 13.320312 2.066406 13.492188 2.042969 13.648438 L 2 13.925781 L 2.042969 13.960938 C 2.113281 14.023438 2.128906 14.109375 2.082031 14.1875 C 2.066406 14.210938 2.035156 14.242188 2.015625 14.253906 L 1.976562 14.277344 L 1.976562 14.878906 L 1.894531 14.964844 C 1.8125 15.042969 1.808594 15.050781 1.789062 15.140625 C 1.78125 15.191406 1.769531 15.242188 1.765625 15.257812 C 1.761719 15.28125 1.78125 15.296875 1.957031 15.375 L 2.152344 15.464844 L 2.179688 15.425781 C 2.222656 15.375 2.277344 15.351562 2.339844 15.351562 C 2.40625 15.351562 2.460938 15.375 2.5 15.425781 C 2.523438 15.460938 2.527344 15.484375 2.527344 15.546875 C 2.523438 15.617188 2.527344 15.621094 2.5625 15.632812 L 2.597656 15.648438 L 2.597656 15.230469 L 2.507812 15.144531 L 2.417969 15.054688 L 2.347656 15.058594 C 2.265625 15.066406 2.214844 15.042969 2.171875 14.988281 C 2.117188 14.914062 2.128906 14.808594 2.195312 14.746094 C 2.292969 14.660156 2.453125 14.691406 2.503906 14.808594 C 2.527344 14.863281 2.527344 14.90625 2.496094 14.960938 L 2.472656 15.007812 L 2.675781 15.203125 L 2.679688 15.441406 L 2.683594 15.675781 L 2.726562 15.695312 L 2.765625 15.710938 L 2.765625 14.792969 L 2.601562 14.632812 C 2.441406 14.480469 2.433594 14.472656 2.398438 14.488281 C 2.28125 14.53125 2.144531 14.445312 2.144531 14.324219 C 2.140625 14.171875 2.304688 14.082031 2.433594 14.160156 C 2.511719 14.207031 2.542969 14.3125 2.507812 14.394531 C 2.492188 14.425781 2.496094 14.433594 2.667969 14.597656 L 2.84375 14.769531 L 2.84375 15.738281 L 2.875 15.75 C 2.890625 15.753906 2.90625 15.757812 2.910156 15.753906 C 2.917969 15.75 2.921875 15.621094 2.921875 15.464844 L 2.921875 15.179688 L 3.265625 14.851562 L 3.335938 14.851562 C 3.40625 14.851562 3.414062 14.847656 3.460938 14.800781 C 3.523438 14.738281 3.585938 14.726562 3.664062 14.757812 C 3.816406 14.8125 3.832031 15.007812 3.691406 15.082031 C 3.664062 15.101562 3.625 15.113281 3.605469 15.113281 C 3.519531 15.113281 3.433594 15.050781 3.414062 14.972656 C 3.402344 14.925781 3.398438 14.925781 3.34375 14.925781 C 3.292969 14.925781 3.285156 14.929688 3.136719 15.074219 L 2.988281 15.21875 L 2.988281 15.789062 L 3.019531 15.800781 C 3.039062 15.808594 3.058594 15.8125 3.066406 15.8125 C 3.074219 15.8125 3.078125 15.738281 3.078125 15.640625 L 3.078125 15.46875 L 3.230469 15.324219 L 3.382812 15.175781 L 3.875 15.175781 L 3.957031 15.09375 C 4.035156 15.015625 4.035156 15.015625 4.023438 14.972656 C 4.003906 14.90625 4.027344 14.839844 4.078125 14.792969 C 4.136719 14.738281 4.199219 14.726562 4.273438 14.757812 C 4.347656 14.78125 4.386719 14.835938 4.394531 14.910156 C 4.398438 14.984375 4.367188 15.046875 4.300781 15.082031 C 4.238281 15.117188 4.195312 15.121094 4.128906 15.09375 L 4.082031 15.074219 L 3.988281 15.164062 L 3.898438 15.25 L 3.40625 15.25 L 3.15625 15.492188 L 3.15625 15.671875 C 3.15625 15.839844 3.15625 15.851562 3.179688 15.851562 C 3.195312 15.851562 3.207031 15.84375 3.207031 15.832031 C 3.207031 15.824219 3.257812 15.769531 3.316406 15.714844 C 3.421875 15.609375 3.425781 15.609375 3.410156 15.566406 C 3.386719 15.472656 3.464844 15.359375 3.566406 15.34375 C 3.632812 15.332031 3.714844 15.367188 3.753906 15.414062 C 3.8125 15.496094 3.789062 15.621094 3.710938 15.679688 C 3.65625 15.714844 3.566406 15.722656 3.511719 15.691406 L 3.46875 15.664062 L 3.367188 15.765625 C 3.304688 15.824219 3.269531 15.867188 3.277344 15.875 C 3.285156 15.878906 3.335938 15.898438 3.394531 15.917969 C 3.472656 15.941406 3.503906 15.945312 3.535156 15.933594 C 3.59375 15.917969 3.664062 15.929688 3.710938 15.96875 C 3.738281 15.992188 3.761719 16 3.8125 16 L 3.878906 16 L 3.878906 15.769531 L 3.957031 15.695312 C 4.03125 15.621094 4.03125 15.617188 4.023438 15.570312 C 4.007812 15.507812 4.027344 15.441406 4.082031 15.390625 C 4.203125 15.28125 4.398438 15.367188 4.398438 15.53125 C 4.398438 15.664062 4.242188 15.753906 4.121094 15.691406 L 4.082031 15.671875 L 4.015625 15.738281 L 3.945312 15.804688 L 3.945312 16 L 4.078125 16 L 4.277344 15.808594 L 4.472656 15.617188 L 4.472656 15.175781 L 4.652344 15.011719 L 4.644531 14.945312 C 4.636719 14.835938 4.699219 14.753906 4.808594 14.742188 C 4.871094 14.734375 4.957031 14.773438 4.992188 14.828125 C 5.046875 14.917969 5.011719 15.042969 4.914062 15.089844 C 4.855469 15.117188 4.800781 15.117188 4.738281 15.085938 L 4.6875 15.0625 L 4.617188 15.128906 L 4.550781 15.195312 L 4.550781 15.417969 L 4.554688 15.640625 L 4.367188 15.820312 L 4.183594 16 L 4.390625 16 L 4.554688 15.839844 L 4.71875 15.683594 L 4.683594 15.648438 C 4.636719 15.597656 4.628906 15.488281 4.667969 15.425781 C 4.695312 15.386719 4.78125 15.335938 4.828125 15.335938 C 4.878906 15.335938 4.964844 15.386719 4.992188 15.425781 C 5.066406 15.546875 4.972656 15.710938 4.835938 15.710938 C 4.792969 15.710938 4.777344 15.726562 4.640625 15.855469 L 4.492188 16 L 4.589844 16 C 4.664062 16 4.6875 15.996094 4.722656 15.972656 C 4.777344 15.933594 4.882812 15.933594 4.9375 15.972656 C 4.96875 15.996094 4.992188 16 5.070312 16 L 5.160156 16 L 5.160156 14.925781 C 5.160156 14.339844 5.164062 13.84375 5.164062 13.832031 C 5.167969 13.820312 5.265625 13.714844 5.382812 13.605469 L 5.59375 13.398438 L 6.578125 13.398438 L 6.648438 13.46875 L 6.714844 13.539062 L 9.871094 13.539062 L 10.0625 13.351562 C 10.246094 13.175781 10.253906 13.167969 10.253906 13.117188 C 10.253906 13.058594 10.292969 12.996094 10.347656 12.960938 C 10.382812 12.941406 10.40625 12.9375 10.460938 12.941406 C 10.523438 12.945312 10.535156 12.953125 10.582031 12.996094 C 10.625 13.042969 10.628906 13.054688 10.628906 13.113281 C 10.628906 13.230469 10.554688 13.304688 10.433594 13.300781 L 10.375 13.300781 L 10.164062 13.507812 L 9.949219 13.710938 L 6.640625 13.710938 L 6.570312 13.644531 L 6.5 13.574219 L 5.671875 13.574219 L 5.503906 13.734375 L 5.339844 13.894531 L 5.339844 16 L 5.429688 16 L 5.429688 13.992188 L 5.589844 13.839844 L 5.746094 13.6875 L 6.523438 13.6875 L 6.667969 13.828125 L 6.816406 13.96875 L 6.816406 14.039062 C 6.816406 14.109375 6.816406 14.113281 6.867188 14.136719 C 6.90625 14.15625 6.925781 14.179688 6.945312 14.222656 C 6.980469 14.296875 6.96875 14.351562 6.90625 14.414062 C 6.863281 14.457031 6.847656 14.460938 6.792969 14.460938 C 6.671875 14.460938 6.601562 14.386719 6.609375 14.273438 C 6.617188 14.203125 6.664062 14.140625 6.71875 14.128906 C 6.746094 14.125 6.75 14.113281 6.75 14.0625 C 6.75 14.007812 6.746094 14.003906 6.625 13.882812 L 6.496094 13.761719 L 5.761719 13.761719 L 5.496094 14.019531 L 5.496094 16 L 5.636719 16 L 5.636719 14.03125 L 5.710938 13.960938 L 5.785156 13.886719 L 6.085938 13.886719 C 6.246094 13.886719 6.40625 13.894531 6.441406 13.902344 C 6.585938 13.933594 6.636719 14.09375 6.535156 14.191406 C 6.4375 14.285156 6.269531 14.242188 6.238281 14.113281 L 6.226562 14.070312 L 6.046875 14.066406 C 5.894531 14.0625 5.863281 14.066406 5.84375 14.082031 C 5.820312 14.101562 5.820312 14.144531 5.820312 15.050781 L 5.820312 16 L 5.882812 16 C 5.929688 16 5.960938 15.992188 5.996094 15.96875 C 6.027344 15.949219 6.058594 15.9375 6.097656 15.9375 C 6.132812 15.9375 6.167969 15.949219 6.199219 15.96875 C 6.230469 15.988281 6.265625 16 6.296875 16 L 6.347656 16 L 6.347656 15.84375 L 6.265625 15.761719 C 6.183594 15.683594 6.175781 15.679688 6.136719 15.6875 C 6.078125 15.707031 6.015625 15.6875 5.96875 15.640625 C 5.890625 15.566406 5.894531 15.460938 5.980469 15.386719 C 6.019531 15.359375 6.039062 15.351562 6.089844 15.351562 C 6.226562 15.351562 6.316406 15.480469 6.253906 15.597656 C 6.234375 15.632812 6.234375 15.632812 6.332031 15.726562 L 6.425781 15.816406 L 6.425781 16 L 6.492188 16 C 6.527344 16 6.554688 15.996094 6.554688 15.988281 C 6.554688 15.96875 6.636719 15.9375 6.695312 15.9375 C 6.746094 15.9375 6.769531 15.945312 6.800781 15.96875 C 6.832031 15.992188 6.851562 16 6.910156 16 L 6.984375 16 L 6.984375 15.792969 L 6.898438 15.714844 L 6.816406 15.632812 L 6.78125 15.660156 C 6.734375 15.695312 6.644531 15.695312 6.589844 15.664062 C 6.503906 15.613281 6.480469 15.5 6.535156 15.421875 C 6.574219 15.367188 6.640625 15.335938 6.703125 15.34375 C 6.800781 15.355469 6.859375 15.417969 6.859375 15.515625 C 6.863281 15.574219 6.867188 15.582031 6.957031 15.667969 L 7.046875 15.757812 L 7.046875 16 L 7.128906 16 C 7.191406 16 7.226562 15.992188 7.261719 15.972656 C 7.316406 15.941406 7.417969 15.945312 7.457031 15.980469 C 7.472656 15.992188 7.503906 16 7.535156 16 L 7.585938 16 L 6.78125 15.226562 L 6.355469 15.226562 L 6.277344 15.148438 L 6.199219 15.074219 L 6.144531 15.089844 C 6.03125 15.121094 5.921875 15.050781 5.910156 14.9375 C 5.890625 14.730469 6.199219 14.675781 6.261719 14.878906 C 6.273438 14.914062 6.273438 14.9375 6.261719 14.972656 C 6.246094 15.019531 6.246094 15.019531 6.320312 15.089844 L 6.394531 15.164062 L 6.820312 15.164062 L 7.253906 15.582031 C 7.613281 15.929688 7.691406 16 7.722656 16 C 7.753906 16 7.757812 15.996094 7.757812 15.964844 C 7.757812 15.9375 7.683594 15.859375 7.320312 15.507812 L 6.882812 15.085938 L 6.753906 15.089844 C 6.617188 15.089844 6.59375 15.082031 6.542969 15.035156 C 6.507812 14.996094 6.492188 14.902344 6.515625 14.851562 C 6.546875 14.785156 6.601562 14.75 6.679688 14.75 C 6.738281 14.75 6.757812 14.757812 6.792969 14.789062 C 6.859375 14.84375 6.878906 14.910156 6.84375 14.992188 C 6.839844 15.007812 6.84375 15.011719 6.875 15.011719 C 6.90625 15.011719 6.980469 15.078125 7.375 15.460938 C 7.816406 15.886719 7.835938 15.910156 7.835938 15.953125 C 7.835938 15.996094 7.839844 16 7.875 16 C 7.914062 16 7.914062 16 7.914062 15.925781 L 7.914062 15.855469 L 7.441406 15.398438 L 6.96875 14.945312 L 6.96875 14.875 C 6.96875 14.804688 6.96875 14.804688 6.886719 14.726562 L 6.808594 14.648438 L 6.28125 14.648438 L 6.214844 14.585938 C 6.152344 14.523438 6.144531 14.523438 6.074219 14.519531 C 6.007812 14.519531 5.996094 14.515625 5.953125 14.472656 C 5.90625 14.425781 5.902344 14.421875 5.902344 14.351562 C 5.902344 14.28125 5.90625 14.273438 5.949219 14.230469 C 6.09375 14.089844 6.328125 14.253906 6.234375 14.429688 L 6.207031 14.480469 L 6.261719 14.535156 L 6.316406 14.585938 L 6.847656 14.585938 L 6.941406 14.679688 C 7.039062 14.773438 7.039062 14.773438 7.039062 14.839844 L 7.035156 14.910156 L 7.507812 15.363281 L 7.976562 15.820312 L 7.976562 16 L 8.054688 16 L 8.054688 15.804688 L 7.695312 15.457031 C 7.496094 15.265625 7.332031 15.101562 7.332031 15.089844 C 7.332031 15.082031 7.316406 15.074219 7.300781 15.066406 C 7.261719 15.058594 7.195312 14.984375 7.183594 14.945312 C 7.140625 14.789062 7.335938 14.667969 7.464844 14.765625 C 7.570312 14.839844 7.558594 15.003906 7.449219 15.050781 C 7.425781 15.0625 7.410156 15.070312 7.410156 15.074219 C 7.410156 15.078125 7.570312 15.234375 7.765625 15.425781 L 8.121094 15.769531 L 8.121094 16 L 8.199219 16 L 8.199219 15.78125 L 7.914062 15.507812 L 7.628906 15.230469 L 7.628906 14.617188 L 7.539062 14.53125 C 7.453125 14.449219 7.445312 14.445312 7.414062 14.460938 C 7.398438 14.46875 7.355469 14.476562 7.324219 14.476562 C 7.21875 14.476562 7.132812 14.363281 7.164062 14.261719 C 7.207031 14.125 7.375 14.085938 7.472656 14.195312 C 7.515625 14.238281 7.515625 14.246094 7.507812 14.320312 L 7.503906 14.398438 L 7.597656 14.488281 L 7.695312 14.578125 L 7.695312 15.195312 L 7.976562 15.46875 L 8.261719 15.742188 L 8.261719 16 L 8.351562 16 C 8.414062 16 8.453125 15.992188 8.488281 15.976562 C 8.550781 15.945312 8.59375 15.945312 8.65625 15.976562 C 8.71875 16.003906 8.84375 16.011719 8.84375 15.984375 C 8.84375 15.976562 8.8125 15.9375 8.777344 15.902344 L 8.707031 15.835938 L 8.53125 15.835938 L 8.222656 15.542969 L 7.914062 15.246094 L 7.914062 15.152344 C 7.914062 15.078125 7.910156 15.0625 7.890625 15.058594 C 7.808594 15.03125 7.761719 14.90625 7.800781 14.828125 C 7.871094 14.695312 8.078125 14.71875 8.121094 14.859375 C 8.140625 14.933594 8.101562 15.023438 8.03125 15.050781 C 7.992188 15.066406 7.992188 15.070312 7.992188 15.140625 L 7.992188 15.21875 L 8.273438 15.492188 L 8.554688 15.761719 L 8.734375 15.761719 L 8.828125 15.855469 C 8.890625 15.910156 8.921875 15.953125 8.921875 15.972656 C 8.921875 15.996094 8.929688 16 8.960938 16 C 8.996094 16 9 15.996094 9 15.957031 C 9 15.921875 8.964844 15.882812 8.636719 15.570312 L 8.277344 15.21875 L 8.277344 14.667969 L 8.164062 14.558594 L 8.050781 14.453125 L 7.996094 14.464844 C 7.917969 14.484375 7.851562 14.46875 7.796875 14.414062 C 7.710938 14.332031 7.710938 14.21875 7.796875 14.136719 C 7.875 14.0625 7.988281 14.054688 8.070312 14.121094 C 8.144531 14.183594 8.164062 14.269531 8.125 14.359375 L 8.105469 14.410156 L 8.339844 14.628906 L 8.339844 15.179688 L 9.066406 15.882812 L 9.066406 16 L 9.15625 16 L 9.15625 15.859375 C 9.15625 15.722656 9.152344 15.714844 9.125 15.703125 C 9.074219 15.679688 9.023438 15.605469 9.015625 15.546875 C 9.007812 15.476562 9.039062 15.410156 9.101562 15.363281 C 9.160156 15.320312 9.277344 15.316406 9.332031 15.359375 C 9.453125 15.445312 9.460938 15.589844 9.351562 15.679688 C 9.328125 15.695312 9.292969 15.714844 9.273438 15.71875 L 9.234375 15.726562 L 9.234375 16 L 9.328125 16 C 9.382812 16 9.433594 15.996094 9.445312 15.992188 C 9.464844 15.984375 9.464844 15.949219 9.464844 15.6875 L 9.464844 15.394531 L 9.382812 15.308594 L 9.296875 15.226562 L 8.96875 15.226562 L 8.757812 15.019531 L 8.546875 14.820312 L 8.546875 14.488281 L 8.503906 14.46875 C 8.371094 14.417969 8.339844 14.25 8.441406 14.148438 C 8.585938 14.007812 8.824219 14.132812 8.789062 14.332031 C 8.777344 14.386719 8.722656 14.449219 8.667969 14.46875 L 8.625 14.488281 L 8.625 14.808594 L 8.8125 14.984375 L 9 15.164062 L 9.328125 15.164062 L 9.4375 15.265625 L 9.542969 15.367188 L 9.542969 15.667969 C 9.542969 15.828125 9.542969 15.960938 9.546875 15.960938 C 9.5625 15.960938 9.695312 15.921875 9.703125 15.914062 C 9.707031 15.90625 9.71875 15.859375 9.730469 15.804688 L 9.746094 15.707031 L 9.703125 15.660156 C 9.65625 15.617188 9.65625 15.613281 9.65625 15.5 L 9.65625 15.382812 L 9.488281 15.214844 C 9.339844 15.070312 9.316406 15.050781 9.292969 15.066406 C 9.246094 15.089844 9.144531 15.078125 9.097656 15.046875 C 9.046875 15.015625 9 14.9375 9 14.882812 C 9 14.828125 9.050781 14.742188 9.09375 14.710938 C 9.160156 14.675781 9.265625 14.675781 9.324219 14.71875 C 9.40625 14.769531 9.4375 14.886719 9.394531 14.96875 L 9.375 15.003906 L 9.550781 15.175781 L 9.722656 15.34375 L 9.722656 15.464844 C 9.722656 15.550781 9.730469 15.589844 9.742188 15.597656 C 9.769531 15.621094 9.800781 15.429688 9.800781 15.25 L 9.800781 15.105469 L 9.746094 15.082031 C 9.609375 15.015625 9.605469 14.824219 9.738281 14.753906 C 9.777344 14.734375 9.867188 14.734375 9.929688 14.75 C 9.941406 14.753906 9.953125 14.742188 9.960938 14.714844 C 9.972656 14.683594 9.96875 14.671875 9.949219 14.648438 C 9.929688 14.628906 9.910156 14.625 9.707031 14.625 L 9.484375 14.625 L 9.40625 14.546875 C 9.332031 14.480469 9.324219 14.472656 9.296875 14.488281 C 9.253906 14.511719 9.140625 14.496094 9.09375 14.464844 C 8.976562 14.386719 8.992188 14.195312 9.121094 14.128906 C 9.179688 14.101562 9.273438 14.105469 9.328125 14.136719 C 9.378906 14.167969 9.425781 14.25 9.425781 14.304688 C 9.425781 14.324219 9.417969 14.359375 9.40625 14.382812 L 9.386719 14.429688 L 9.449219 14.488281 L 9.507812 14.550781 L 9.730469 14.550781 C 9.914062 14.550781 9.953125 14.554688 9.972656 14.570312 C 9.984375 14.582031 10 14.589844 10 14.585938 C 10.003906 14.582031 10.019531 14.535156 10.039062 14.480469 C 10.105469 14.304688 10.171875 14.179688 10.273438 14.042969 L 10.296875 14.011719 L 10.132812 14.011719 L 10.050781 14.089844 C 9.972656 14.164062 9.972656 14.164062 9.992188 14.195312 C 10.019531 14.234375 10.019531 14.320312 9.992188 14.371094 C 9.941406 14.460938 9.792969 14.496094 9.710938 14.429688 C 9.601562 14.339844 9.609375 14.195312 9.726562 14.125 C 9.761719 14.101562 9.785156 14.101562 9.847656 14.105469 L 9.925781 14.109375 L 10.105469 13.9375 L 10.332031 13.9375 C 10.542969 13.9375 10.5625 13.9375 10.585938 13.960938 C 10.601562 13.980469 10.625 13.988281 10.671875 13.988281 L 10.738281 13.988281 L 10.730469 13.761719 C 10.726562 13.632812 10.71875 13.195312 10.714844 12.789062 L 10.703125 12.042969 L 10.953125 11.804688 L 11.199219 11.570312 L 11.199219 11.15625 L 11.449219 10.914062 L 12.074219 10.914062 L 12.167969 11.003906 C 12.257812 11.09375 12.265625 11.097656 12.308594 11.089844 C 12.457031 11.074219 12.558594 11.230469 12.472656 11.351562 C 12.378906 11.492188 12.167969 11.421875 12.167969 11.253906 C 12.167969 11.226562 12.175781 11.191406 12.1875 11.175781 C 12.210938 11.148438 12.207031 11.144531 12.128906 11.066406 L 12.046875 10.988281 L 11.476562 10.988281 L 11.367188 11.089844 L 11.261719 11.195312 L 11.261719 11.605469 L 11.019531 11.84375 L 10.773438 12.082031 L 10.785156 13.007812 C 10.800781 13.910156 10.800781 13.933594 10.828125 13.960938 C 10.84375 13.980469 10.867188 13.988281 10.898438 13.988281 L 10.945312 13.988281 L 10.917969 13.957031 L 10.886719 13.929688 L 10.886719 12.09375 L 11.128906 11.863281 L 11.367188 11.632812 L 11.367188 11.230469 L 11.53125 11.074219 L 11.882812 11.074219 L 11.972656 11.125 L 12.066406 11.175781 L 12.0625 11.277344 C 12.0625 11.371094 12.0625 11.378906 12.097656 11.414062 L 12.132812 11.449219 L 13.6875 11.449219 L 13.734375 11.382812 C 13.761719 11.347656 13.832031 11.265625 13.890625 11.199219 C 13.953125 11.132812 14.007812 11.070312 14.015625 11.054688 C 14.042969 11.003906 14.03125 10.933594 13.992188 10.871094 L 13.953125 10.8125 L 13.144531 10.8125 L 13.039062 10.710938 L 12.9375 10.613281 L 12.394531 10.613281 L 12.171875 10.394531 L 11.949219 10.179688 L 11.949219 9.945312 L 11.652344 9.65625 L 11.652344 8.414062 L 11.597656 8.363281 C 11.550781 8.320312 11.546875 8.308594 11.546875 8.253906 C 11.546875 8.113281 11.671875 8.035156 11.792969 8.097656 C 11.851562 8.128906 11.886719 8.191406 11.878906 8.257812 C 11.871094 8.328125 11.839844 8.375 11.777344 8.398438 L 11.726562 8.417969 L 11.726562 9.632812 L 11.878906 9.773438 L 12.027344 9.917969 L 12.027344 10.15625 L 12.222656 10.347656 L 12.421875 10.539062 L 12.691406 10.539062 L 12.964844 10.535156 L 13.160156 10.738281 L 13.878906 10.738281 L 13.835938 10.695312 L 13.792969 10.648438 L 13.234375 10.648438 L 13.117188 10.539062 L 13.003906 10.425781 L 12.589844 10.425781 L 12.488281 10.328125 L 12.390625 10.234375 L 12.339844 10.25 C 12.292969 10.265625 12.28125 10.261719 12.238281 10.242188 C 12.085938 10.171875 12.101562 9.964844 12.261719 9.925781 C 12.367188 9.894531 12.464844 9.976562 12.464844 10.09375 C 12.464844 10.15625 12.46875 10.160156 12.554688 10.242188 L 12.640625 10.324219 L 13.054688 10.324219 L 13.164062 10.429688 L 13.273438 10.539062 L 13.5 10.539062 C 13.714844 10.539062 13.730469 10.535156 13.738281 10.515625 C 13.738281 10.5 13.773438 10.46875 13.808594 10.4375 L 13.878906 10.386719 L 13.378906 10.386719 L 13.246094 10.261719 C 13.121094 10.140625 13.113281 10.136719 13.097656 10.160156 C 13.089844 10.175781 13.066406 10.199219 13.042969 10.210938 C 12.902344 10.296875 12.730469 10.132812 12.808594 9.988281 C 12.839844 9.925781 12.886719 9.898438 12.960938 9.898438 L 13.027344 9.898438 L 13.417969 10.273438 L 13.71875 10.273438 C 14.054688 10.273438 14.027344 10.28125 14.082031 10.183594 L 14.109375 10.136719 L 13.917969 10.136719 C 13.734375 10.136719 13.730469 10.136719 13.703125 10.167969 C 13.691406 10.1875 13.660156 10.207031 13.640625 10.21875 C 13.5 10.289062 13.34375 10.125 13.417969 9.988281 C 13.488281 9.867188 13.65625 9.867188 13.71875 9.988281 L 13.746094 10.039062 L 13.933594 10.039062 C 14.148438 10.039062 14.144531 10.039062 14.09375 9.921875 L 14.066406 9.863281 L 13.988281 9.863281 C 13.929688 9.863281 13.902344 9.855469 13.882812 9.839844 C 13.859375 9.820312 13.796875 9.820312 13.011719 9.816406 L 12.160156 9.8125 L 12.054688 9.710938 L 11.949219 9.605469 L 11.949219 7.378906 L 11.855469 7.292969 C 11.78125 7.222656 11.75 7.203125 11.710938 7.195312 C 11.605469 7.175781 11.550781 7.074219 11.597656 6.980469 C 11.648438 6.886719 11.765625 6.863281 11.84375 6.941406 C 11.894531 6.984375 11.90625 7.046875 11.878906 7.101562 L 11.855469 7.140625 L 12.066406 7.34375 L 12.066406 9.582031 L 12.140625 9.648438 L 12.21875 9.710938 L 13.046875 9.710938 C 13.867188 9.710938 13.875 9.710938 13.921875 9.738281 C 13.945312 9.753906 13.96875 9.765625 13.972656 9.761719 C 13.972656 9.757812 13.960938 9.730469 13.9375 9.695312 C 13.894531 9.640625 13.890625 9.640625 13.828125 9.636719 C 13.777344 9.636719 13.757812 9.632812 13.734375 9.605469 L 13.703125 9.574219 L 13.675781 9.601562 C 13.605469 9.660156 13.488281 9.65625 13.429688 9.585938 C 13.316406 9.457031 13.445312 9.261719 13.609375 9.3125 C 13.660156 9.328125 13.71875 9.390625 13.71875 9.421875 C 13.71875 9.453125 13.816406 9.542969 13.835938 9.53125 C 13.867188 9.511719 13.792969 9.277344 13.738281 9.222656 C 13.703125 9.1875 13.695312 9.1875 13.578125 9.1875 L 13.453125 9.1875 L 13.265625 9.367188 C 13.164062 9.46875 13.074219 9.550781 13.066406 9.550781 C 13.054688 9.550781 13.046875 9.558594 13.042969 9.570312 C 13.039062 9.578125 13.007812 9.601562 12.976562 9.613281 C 12.902344 9.644531 12.832031 9.632812 12.785156 9.574219 C 12.679688 9.453125 12.785156 9.265625 12.9375 9.296875 C 12.984375 9.300781 13.050781 9.351562 13.0625 9.386719 C 13.066406 9.402344 13.117188 9.359375 13.238281 9.246094 L 13.402344 9.085938 L 13.566406 9.085938 C 13.730469 9.085938 13.730469 9.085938 13.738281 9.058594 C 13.742188 9.042969 13.75 9.019531 13.753906 9.007812 C 13.761719 8.988281 13.738281 8.988281 13.550781 8.988281 L 13.339844 8.988281 L 13.222656 9.101562 L 13.105469 9.210938 L 12.625 9.210938 L 12.542969 9.292969 C 12.460938 9.371094 12.460938 9.375 12.464844 9.4375 C 12.46875 9.539062 12.417969 9.601562 12.320312 9.617188 C 12.230469 9.632812 12.128906 9.542969 12.128906 9.449219 C 12.128906 9.390625 12.175781 9.324219 12.238281 9.296875 C 12.285156 9.269531 12.289062 9.269531 12.351562 9.292969 L 12.417969 9.316406 L 12.507812 9.226562 L 12.601562 9.136719 L 13.09375 9.136719 L 13.3125 8.925781 L 13.570312 8.925781 C 13.777344 8.921875 13.835938 8.921875 13.855469 8.90625 C 13.878906 8.890625 13.960938 8.859375 14.035156 8.84375 C 14.058594 8.839844 14.070312 8.828125 14.070312 8.8125 C 14.070312 8.777344 14.144531 8.703125 14.191406 8.691406 C 14.210938 8.6875 14.25 8.691406 14.273438 8.699219 L 14.320312 8.710938 L 14.648438 8.394531 C 14.828125 8.222656 14.972656 8.074219 14.972656 8.066406 C 14.972656 8.058594 14.96875 8.035156 14.960938 8.015625 L 14.945312 7.984375 L 14.722656 8.199219 L 14.503906 8.414062 L 14.242188 8.414062 L 13.867188 8.773438 L 13.125 8.773438 L 13.125 8.820312 C 13.125 8.953125 12.96875 9.03125 12.859375 8.949219 C 12.753906 8.867188 12.773438 8.71875 12.898438 8.65625 C 12.945312 8.632812 12.953125 8.632812 13.011719 8.652344 C 13.058594 8.671875 13.128906 8.675781 13.441406 8.675781 L 13.816406 8.675781 L 14.003906 8.492188 L 14.191406 8.3125 L 14.449219 8.3125 L 14.675781 8.097656 L 14.898438 7.878906 L 14.875 7.832031 C 14.863281 7.808594 14.851562 7.789062 14.847656 7.789062 C 14.839844 7.789062 14.746094 7.875 14.636719 7.980469 L 14.4375 8.175781 L 14.128906 8.175781 L 13.914062 8.382812 L 13.699219 8.585938 L 13.3125 8.585938 L 13.234375 8.511719 L 13.160156 8.4375 L 12.484375 8.4375 L 12.4375 8.390625 C 12.386719 8.34375 12.386719 8.34375 12.351562 8.367188 C 12.238281 8.429688 12.089844 8.347656 12.089844 8.21875 C 12.089844 8.144531 12.164062 8.0625 12.242188 8.054688 C 12.34375 8.039062 12.425781 8.113281 12.425781 8.222656 C 12.425781 8.273438 12.433594 8.289062 12.46875 8.324219 L 12.511719 8.363281 L 13.183594 8.363281 L 13.261719 8.4375 L 13.335938 8.511719 L 13.6875 8.511719 L 14.101562 8.113281 L 14.398438 8.113281 L 14.605469 7.914062 L 14.808594 7.714844 L 14.789062 7.675781 C 14.777344 7.65625 14.761719 7.636719 14.757812 7.636719 C 14.75 7.636719 14.652344 7.730469 14.535156 7.84375 L 14.320312 8.050781 L 13.777344 8.050781 L 13.691406 8.136719 L 13.71875 8.171875 C 13.757812 8.226562 13.765625 8.296875 13.738281 8.351562 C 13.644531 8.523438 13.382812 8.453125 13.402344 8.257812 C 13.40625 8.167969 13.488281 8.101562 13.582031 8.101562 C 13.613281 8.101562 13.636719 8.085938 13.6875 8.039062 L 13.75 7.976562 L 14.296875 7.976562 L 14.507812 7.769531 L 14.71875 7.566406 L 14.6875 7.519531 C 14.671875 7.496094 14.65625 7.476562 14.652344 7.476562 C 14.648438 7.476562 14.546875 7.566406 14.429688 7.679688 L 14.21875 7.886719 L 13.558594 7.886719 L 13.371094 8.070312 L 13.179688 8.25 L 12.796875 8.25 L 12.570312 8.03125 C 12.445312 7.910156 12.320312 7.800781 12.292969 7.785156 C 12.238281 7.757812 12.195312 7.699219 12.195312 7.652344 C 12.195312 7.605469 12.234375 7.539062 12.273438 7.519531 C 12.292969 7.507812 12.332031 7.5 12.359375 7.5 C 12.488281 7.5 12.558594 7.660156 12.46875 7.753906 C 12.449219 7.773438 12.453125 7.78125 12.632812 7.957031 L 12.820312 8.136719 L 13.144531 8.136719 L 13.324219 7.960938 L 13.507812 7.789062 L 14.164062 7.789062 L 14.375 7.582031 L 14.585938 7.382812 L 14.550781 7.332031 L 14.515625 7.285156 L 14.320312 7.476562 L 14.125 7.664062 L 13.777344 7.664062 L 13.429688 7.660156 L 13.09375 7.988281 L 12.78125 7.988281 L 12.679688 7.894531 L 12.582031 7.804688 L 12.582031 7.191406 L 12.503906 7.121094 L 12.464844 7.15625 C 12.390625 7.214844 12.296875 7.214844 12.242188 7.148438 C 12.175781 7.074219 12.179688 7 12.253906 6.9375 C 12.289062 6.90625 12.308594 6.898438 12.355469 6.898438 C 12.40625 6.898438 12.421875 6.90625 12.460938 6.941406 C 12.484375 6.964844 12.503906 6.992188 12.503906 7.003906 C 12.503906 7.011719 12.539062 7.050781 12.582031 7.09375 L 12.660156 7.167969 L 12.660156 7.78125 L 12.726562 7.847656 L 12.796875 7.914062 L 13.074219 7.914062 L 13.402344 7.585938 L 14.101562 7.585938 L 14.289062 7.40625 L 14.472656 7.226562 L 14.449219 7.195312 C 14.433594 7.175781 14.421875 7.164062 14.417969 7.164062 C 14.414062 7.164062 14.339844 7.234375 14.25 7.320312 L 14.089844 7.476562 L 13.246094 7.476562 L 13.199219 7.523438 C 13.15625 7.566406 13.148438 7.578125 13.15625 7.617188 C 13.167969 7.671875 13.136719 7.738281 13.089844 7.769531 C 13.042969 7.796875 12.960938 7.796875 12.914062 7.769531 C 12.871094 7.742188 12.839844 7.664062 12.847656 7.613281 C 12.859375 7.554688 12.921875 7.5 12.988281 7.492188 C 13.03125 7.484375 13.058594 7.46875 13.121094 7.410156 L 13.199219 7.335938 L 14.023438 7.335938 L 14.328125 7.046875 L 14.300781 7.007812 L 14.273438 6.972656 L 14.128906 7.109375 L 13.984375 7.25 L 13.5 7.25 C 13.027344 7.25 13.015625 7.25 12.960938 7.222656 C 12.855469 7.171875 12.824219 7.09375 12.867188 7.007812 C 12.90625 6.929688 12.984375 6.902344 13.070312 6.9375 C 13.117188 6.957031 13.144531 6.992188 13.15625 7.054688 L 13.167969 7.101562 L 13.933594 7.101562 L 14.054688 6.984375 C 14.175781 6.863281 14.179688 6.859375 14.136719 6.808594 C 14.117188 6.789062 14.109375 6.796875 13.992188 6.90625 L 13.867188 7.023438 L 13.300781 7.023438 L 13.085938 6.820312 L 12.871094 6.613281 L 12.03125 6.613281 L 11.90625 6.738281 L 11.488281 6.738281 L 11.414062 6.664062 L 11.339844 6.59375 L 11.339844 6.15625 L 11.582031 5.921875 L 11.554688 5.875 C 11.535156 5.828125 11.53125 5.816406 11.546875 5.773438 C 11.59375 5.625 11.800781 5.625 11.847656 5.773438 C 11.875 5.863281 11.792969 5.960938 11.691406 5.960938 C 11.648438 5.960938 11.628906 5.976562 11.53125 6.074219 L 11.417969 6.179688 L 11.417969 6.566406 L 11.527344 6.675781 L 11.867188 6.675781 L 11.933594 6.605469 L 12.003906 6.539062 L 12.898438 6.539062 L 13.113281 6.742188 L 13.324219 6.949219 L 13.84375 6.949219 L 14.070312 6.730469 L 14.039062 6.695312 L 14.007812 6.65625 L 13.898438 6.765625 L 13.792969 6.875 L 13.378906 6.875 L 13.152344 6.65625 L 12.921875 6.4375 L 11.835938 6.4375 L 11.808594 6.480469 C 11.738281 6.59375 11.554688 6.554688 11.527344 6.417969 C 11.507812 6.316406 11.621094 6.21875 11.722656 6.25 C 11.769531 6.265625 11.832031 6.328125 11.832031 6.359375 C 11.832031 6.371094 11.917969 6.375 12.398438 6.375 L 12.964844 6.375 L 13.183594 6.585938 L 13.402344 6.800781 L 13.765625 6.800781 L 13.867188 6.703125 C 13.960938 6.613281 13.964844 6.605469 13.949219 6.582031 C 13.929688 6.558594 13.925781 6.558594 13.828125 6.652344 L 13.726562 6.75 L 13.441406 6.75 L 13.335938 6.644531 L 13.226562 6.542969 L 13.226562 6.253906 L 13.167969 6.195312 L 13.105469 6.136719 L 12.652344 6.136719 L 12.539062 6.027344 C 12.429688 5.921875 12.429688 5.921875 12.390625 5.9375 C 12.3125 5.96875 12.226562 5.9375 12.1875 5.859375 C 12.164062 5.816406 12.164062 5.78125 12.1875 5.730469 C 12.214844 5.675781 12.265625 5.648438 12.335938 5.648438 C 12.382812 5.648438 12.398438 5.65625 12.4375 5.695312 C 12.476562 5.734375 12.480469 5.742188 12.476562 5.800781 L 12.472656 5.863281 L 12.574219 5.960938 L 12.679688 6.0625 L 13.132812 6.0625 L 13.304688 6.234375 L 13.304688 6.519531 L 13.394531 6.605469 L 13.480469 6.6875 L 13.6875 6.6875 L 13.78125 6.59375 L 13.878906 6.503906 L 13.816406 6.421875 L 13.753906 6.347656 L 13.746094 6.402344 C 13.734375 6.476562 13.714844 6.503906 13.664062 6.53125 C 13.609375 6.554688 13.589844 6.554688 13.53125 6.53125 C 13.480469 6.511719 13.433594 6.449219 13.433594 6.394531 C 13.433594 6.300781 13.535156 6.222656 13.628906 6.25 C 13.652344 6.257812 13.667969 6.257812 13.667969 6.253906 C 13.667969 6.25 13.648438 6.222656 13.621094 6.191406 C 13.578125 6.140625 13.570312 6.136719 13.507812 6.136719 L 13.441406 6.136719 L 13.285156 5.988281 C 13.203125 5.90625 13.125 5.835938 13.117188 5.835938 C 13.105469 5.835938 13.089844 5.855469 13.078125 5.875 C 13.027344 5.972656 12.859375 5.972656 12.808594 5.875 C 12.777344 5.8125 12.785156 5.753906 12.832031 5.707031 C 12.902344 5.628906 13.023438 5.636719 13.078125 5.726562 C 13.09375 5.75 13.109375 5.761719 13.128906 5.761719 C 13.148438 5.761719 13.210938 5.8125 13.320312 5.917969 C 13.457031 6.050781 13.511719 6.097656 13.511719 6.070312 C 13.511719 6.066406 13.449219 5.984375 13.375 5.890625 C 13.296875 5.796875 13.195312 5.667969 13.144531 5.601562 L 13.058594 5.488281 L 11.761719 5.488281 L 11.113281 4.863281 L 10.90625 4.863281 L 10.621094 5.140625 L 10.332031 5.417969 L 10.332031 6.085938 L 10.578125 6.085938 L 10.578125 6.75 L 10.457031 6.753906 L 10.339844 6.757812 L 10.335938 7.148438 C 10.332031 7.363281 10.335938 7.539062 10.339844 7.535156 C 10.433594 7.488281 10.453125 7.484375 10.507812 7.5 C 10.539062 7.511719 10.570312 7.535156 10.585938 7.5625 C 10.691406 7.710938 10.472656 7.875 10.34375 7.742188 C 10.320312 7.714844 10.304688 7.710938 10.230469 7.710938 L 10.152344 7.710938 L 10.152344 6.75 L 9.671875 6.75 L 9.671875 7.867188 L 9.953125 8.148438 L 11.128906 8.148438 L 11.300781 8.320312 L 11.300781 9.5625 L 11.121094 9.5625 L 11.125 9.675781 L 11.128906 9.792969 L 11.277344 9.894531 L 11.429688 9.996094 L 11.484375 9.972656 C 11.648438 9.890625 11.800781 10.097656 11.683594 10.238281 C 11.613281 10.316406 11.488281 10.3125 11.421875 10.230469 C 11.394531 10.191406 11.386719 10.171875 11.386719 10.117188 L 11.386719 10.050781 L 11.222656 9.941406 L 11.054688 9.832031 L 11.054688 9.5625 L 10.875 9.5625 L 10.867188 8.96875 L 10.734375 8.933594 L 10.597656 8.898438 L 10.332031 9.15625 L 10.332031 10.667969 L 10.144531 10.851562 L 9.957031 11.03125 L 9.957031 11.351562 L 9.722656 11.351562 L 9.722656 10.929688 L 9.835938 10.824219 C 9.894531 10.765625 9.945312 10.714844 9.945312 10.710938 C 9.945312 10.707031 9.898438 10.707031 9.84375 10.707031 L 9.742188 10.707031 L 9.738281 10.398438 L 9.738281 10.089844 L 9.652344 10.070312 L 9.566406 10.046875 L 9.394531 10.214844 L 9.21875 10.382812 L 9.21875 11.144531 L 9.144531 11.214844 L 9.070312 11.289062 L 4.125 11.289062 L 4.125 10.109375 L 3.859375 9.851562 L 2.054688 9.851562 L 2.054688 8.574219 L 2.125 8.574219 L 2.117188 8.445312 C 2.113281 8.375 2.105469 8.300781 2.101562 8.277344 C 2.089844 8.21875 2.125 8.132812 2.183594 8.089844 C 2.246094 8.042969 2.363281 8.042969 2.429688 8.085938 C 2.503906 8.136719 2.527344 8.207031 2.53125 8.402344 L 2.535156 8.574219 L 2.585938 8.574219 C 2.636719 8.574219 2.636719 8.578125 2.644531 8.628906 C 2.648438 8.65625 2.652344 8.847656 2.65625 9.046875 C 2.660156 9.25 2.664062 9.417969 2.671875 9.421875 C 2.675781 9.425781 2.78125 9.328125 2.910156 9.207031 L 3.140625 8.980469 L 3.140625 6.820312 L 3.53125 6.445312 L 3.53125 6.226562 L 2.820312 6.226562 L 2.820312 6 L 2.25 6 L 2.207031 5.960938 C 2.152344 5.914062 2.136719 5.859375 2.164062 5.796875 C 2.199219 5.710938 2.230469 5.703125 2.492188 5.710938 L 2.722656 5.714844 L 2.863281 5.574219 L 5.648438 5.574219 L 5.664062 5.535156 C 5.671875 5.515625 5.675781 5.488281 5.675781 5.480469 C 5.675781 5.457031 5.5 5.359375 5.445312 5.355469 C 5.328125 5.339844 5.265625 5.226562 5.328125 5.128906 C 5.367188 5.0625 5.410156 5.050781 5.59375 5.050781 L 5.761719 5.050781 L 6.011719 5.292969 L 6.011719 5.5625 L 6.15625 5.5625 L 6.15625 6.25 L 5.804688 6.25 C 5.613281 6.25 5.457031 6.253906 5.460938 6.257812 C 5.460938 6.265625 5.472656 6.285156 5.480469 6.300781 L 5.5 6.335938 L 6.308594 6.335938 L 6.308594 5.46875 L 6.417969 5.574219 L 6.523438 5.675781 L 8.285156 5.675781 L 8.425781 5.597656 L 8.5625 5.519531 L 7.71875 5.511719 L 7.71875 5.351562 L 7.292969 5.351562 L 7.292969 5.0625 L 7.621094 5.0625 L 7.808594 4.882812 L 7.808594 4.542969 L 8.199219 4.167969 L 8.199219 3.894531 L 7.984375 3.6875 L 7.773438 3.480469 L 7.773438 0.0429688 L 7.710938 0.03125 C 7.679688 0.0273438 7.621094 0.0234375 7.589844 0.0234375 L 7.527344 0.0234375 L 7.527344 1.480469 L 7.601562 1.609375 L 7.679688 1.738281 L 7.679688 3.144531 L 7.46875 3.347656 L 7.46875 3.417969 C 7.46875 3.496094 7.433594 3.539062 7.363281 3.5625 C 7.300781 3.582031 7.25 3.566406 7.203125 3.515625 C 7.128906 3.433594 7.164062 3.308594 7.273438 3.273438 C 7.300781 3.265625 7.324219 3.265625 7.328125 3.265625 C 7.332031 3.273438 7.382812 3.234375 7.4375 3.179688 L 7.539062 3.082031 L 7.539062 1.777344 L 7.382812 1.519531 L 7.382812 0.015625 L 7.308594 0.0078125 C 7.269531 0.00390625 7.230469 0.00390625 7.226562 0.0078125 C 7.21875 0.0117188 7.214844 0.410156 7.214844 0.894531 L 7.214844 1.777344 L 7.265625 1.867188 C 7.304688 1.9375 7.320312 1.972656 7.320312 2.015625 C 7.320312 2.0625 7.324219 2.074219 7.339844 2.074219 C 7.375 2.074219 7.433594 2.113281 7.453125 2.148438 C 7.527344 2.285156 7.382812 2.425781 7.242188 2.355469 C 7.148438 2.308594 7.140625 2.144531 7.226562 2.101562 C 7.273438 2.078125 7.261719 1.996094 7.203125 1.898438 L 7.152344 1.816406 L 7.152344 0 L 7.023438 0 L 7.023438 2.34375 L 7.214844 2.527344 C 7.320312 2.628906 7.410156 2.710938 7.417969 2.710938 C 7.445312 2.710938 7.488281 2.789062 7.488281 2.835938 C 7.488281 2.953125 7.347656 3.027344 7.25 2.964844 C 7.199219 2.933594 7.179688 2.890625 7.175781 2.835938 C 7.175781 2.785156 7.214844 2.71875 7.253906 2.707031 C 7.28125 2.699219 7.265625 2.679688 7.113281 2.53125 L 6.945312 2.367188 L 6.945312 0 L 6.800781 0 L 6.800781 1.816406 L 6.691406 1.925781 L 6.710938 1.988281 C 6.722656 2.035156 6.742188 2.066406 6.769531 2.09375 C 6.878906 2.195312 6.816406 2.351562 6.660156 2.351562 C 6.613281 2.351562 6.597656 2.34375 6.5625 2.308594 C 6.523438 2.273438 6.515625 2.253906 6.515625 2.214844 C 6.515625 2.140625 6.546875 2.09375 6.601562 2.070312 C 6.640625 2.050781 6.648438 2.042969 6.640625 2.019531 C 6.636719 2.007812 6.628906 1.972656 6.625 1.945312 C 6.621094 1.898438 6.625 1.890625 6.671875 1.84375 L 6.722656 1.796875 L 6.722656 0 L 6.59375 0 Z M 5.519531 3.890625 C 5.574219 3.953125 5.578125 4.027344 5.527344 4.085938 C 5.425781 4.199219 5.238281 4.125 5.253906 3.976562 C 5.269531 3.84375 5.425781 3.792969 5.519531 3.890625 Z M 7.398438 3.867188 C 7.476562 3.917969 7.496094 4 7.445312 4.078125 C 7.386719 4.160156 7.265625 4.164062 7.199219 4.085938 C 7.136719 4.015625 7.160156 3.898438 7.246094 3.859375 C 7.304688 3.828125 7.347656 3.832031 7.398438 3.867188 Z M 2.96875 5.101562 C 3.078125 5.203125 3.011719 5.363281 2.859375 5.363281 C 2.710938 5.363281 2.65625 5.171875 2.777344 5.089844 C 2.84375 5.046875 2.910156 5.050781 2.96875 5.101562 Z M 3.613281 5.101562 C 3.71875 5.195312 3.652344 5.363281 3.511719 5.363281 C 3.40625 5.363281 3.328125 5.261719 3.363281 5.171875 C 3.375 5.128906 3.414062 5.085938 3.453125 5.070312 C 3.492188 5.054688 3.582031 5.074219 3.613281 5.101562 Z M 4.183594 5.074219 C 4.246094 5.097656 4.28125 5.148438 4.28125 5.210938 C 4.28125 5.351562 4.125 5.417969 4.023438 5.324219 C 3.945312 5.257812 3.960938 5.140625 4.050781 5.085938 C 4.097656 5.058594 4.132812 5.054688 4.183594 5.074219 Z M 4.882812 5.101562 C 4.984375 5.195312 4.917969 5.363281 4.777344 5.363281 C 4.675781 5.363281 4.597656 5.261719 4.628906 5.171875 C 4.644531 5.128906 4.683594 5.085938 4.71875 5.070312 C 4.761719 5.054688 4.851562 5.074219 4.882812 5.101562 Z M 1.796875 5.132812 C 1.835938 5.171875 1.839844 5.183594 1.832031 5.238281 C 1.820312 5.382812 1.652344 5.433594 1.558594 5.324219 C 1.496094 5.25 1.53125 5.125 1.621094 5.085938 C 1.675781 5.0625 1.75 5.082031 1.796875 5.132812 Z M 11.1875 5.683594 C 11.269531 5.730469 11.285156 5.847656 11.214844 5.914062 C 11.152344 5.976562 11.054688 5.976562 10.988281 5.914062 C 10.957031 5.882812 10.953125 5.867188 10.953125 5.8125 C 10.953125 5.753906 10.957031 5.742188 10.996094 5.703125 C 11.03125 5.671875 11.050781 5.664062 11.09375 5.664062 C 11.125 5.664062 11.164062 5.671875 11.1875 5.683594 Z M 1.792969 5.734375 C 1.875 5.78125 1.886719 5.902344 1.8125 5.964844 C 1.738281 6.027344 1.667969 6.027344 1.59375 5.957031 C 1.558594 5.921875 1.550781 5.90625 1.550781 5.859375 C 1.550781 5.734375 1.683594 5.667969 1.792969 5.734375 Z M 11.175781 6.269531 C 11.214844 6.289062 11.25 6.355469 11.25 6.402344 C 11.25 6.445312 11.203125 6.511719 11.15625 6.53125 C 11.070312 6.574219 10.976562 6.53125 10.949219 6.445312 C 10.917969 6.359375 10.964844 6.273438 11.046875 6.25 C 11.09375 6.238281 11.121094 6.242188 11.175781 6.269531 Z M 2.375 6.285156 C 2.476562 6.332031 2.496094 6.472656 2.410156 6.535156 C 2.277344 6.636719 2.09375 6.503906 2.167969 6.355469 C 2.183594 6.324219 2.207031 6.300781 2.242188 6.285156 C 2.308594 6.257812 2.308594 6.257812 2.375 6.285156 Z M 1.785156 6.292969 C 1.804688 6.304688 1.832031 6.328125 1.84375 6.351562 C 1.898438 6.453125 1.824219 6.574219 1.707031 6.574219 C 1.589844 6.574219 1.515625 6.453125 1.570312 6.351562 C 1.609375 6.28125 1.707031 6.253906 1.785156 6.292969 Z M 2.394531 6.949219 C 2.445312 6.976562 2.476562 7.058594 2.457031 7.117188 C 2.429688 7.199219 2.34375 7.238281 2.257812 7.210938 C 2.125 7.171875 2.113281 6.992188 2.242188 6.9375 C 2.300781 6.914062 2.335938 6.914062 2.394531 6.949219 Z M 1.785156 6.945312 C 1.804688 6.953125 1.832031 6.980469 1.84375 7 C 1.898438 7.105469 1.824219 7.226562 1.707031 7.226562 C 1.589844 7.226562 1.515625 7.105469 1.570312 7 C 1.609375 6.929688 1.707031 6.90625 1.785156 6.945312 Z M 11.183594 7.523438 C 11.203125 7.535156 11.226562 7.570312 11.234375 7.597656 C 11.273438 7.699219 11.199219 7.792969 11.089844 7.792969 C 11.039062 7.792969 11.019531 7.785156 10.988281 7.753906 C 10.9375 7.703125 10.925781 7.652344 10.949219 7.59375 C 10.980469 7.496094 11.097656 7.460938 11.183594 7.523438 Z M 11.828125 7.519531 C 11.847656 7.53125 11.867188 7.558594 11.878906 7.582031 C 11.945312 7.734375 11.746094 7.863281 11.625 7.75 C 11.492188 7.617188 11.667969 7.417969 11.828125 7.519531 Z M 1.148438 8.144531 C 1.191406 8.171875 1.21875 8.242188 1.210938 8.296875 C 1.207031 8.316406 1.183594 8.351562 1.164062 8.371094 C 1.097656 8.4375 1.007812 8.433594 0.945312 8.371094 C 0.808594 8.242188 0.988281 8.042969 1.148438 8.144531 Z M 2.378906 10.527344 C 2.445312 10.5625 2.484375 10.621094 2.484375 10.691406 C 2.484375 10.863281 2.265625 10.9375 2.148438 10.804688 C 2.113281 10.769531 2.109375 10.75 2.109375 10.699219 C 2.109375 10.625 2.132812 10.574219 2.179688 10.539062 C 2.25 10.492188 2.304688 10.488281 2.378906 10.527344 Z M 3.195312 10.527344 C 3.355469 10.609375 3.316406 10.84375 3.140625 10.871094 C 3.074219 10.882812 3.035156 10.867188 2.980469 10.824219 C 2.847656 10.710938 2.929688 10.507812 3.109375 10.5 C 3.125 10.5 3.164062 10.511719 3.195312 10.527344 Z M 3.203125 11.148438 C 3.320312 11.21875 3.328125 11.363281 3.21875 11.453125 C 3.1875 11.480469 3.164062 11.488281 3.113281 11.488281 C 3.027344 11.488281 2.96875 11.453125 2.933594 11.382812 C 2.90625 11.320312 2.90625 11.300781 2.929688 11.238281 C 2.972656 11.136719 3.105469 11.09375 3.203125 11.148438 Z M 10.5625 12.351562 C 10.605469 12.375 10.65625 12.457031 10.65625 12.507812 C 10.65625 12.554688 10.605469 12.636719 10.5625 12.664062 C 10.46875 12.71875 10.339844 12.679688 10.289062 12.585938 C 10.207031 12.425781 10.402344 12.253906 10.5625 12.351562 Z M 7.410156 12.910156 C 7.546875 12.976562 7.546875 13.167969 7.410156 13.238281 C 7.285156 13.300781 7.136719 13.214844 7.136719 13.074219 C 7.136719 12.972656 7.222656 12.886719 7.324219 12.886719 C 7.347656 12.886719 7.386719 12.898438 7.410156 12.910156 Z M 3.050781 12.9375 C 3.191406 13.007812 3.191406 13.199219 3.050781 13.265625 C 2.925781 13.328125 2.78125 13.238281 2.78125 13.101562 C 2.78125 13 2.867188 12.914062 2.96875 12.914062 C 2.988281 12.914062 3.027344 12.921875 3.050781 12.9375 Z M 3.65625 12.9375 C 3.792969 12.996094 3.796875 13.1875 3.664062 13.257812 C 3.585938 13.304688 3.507812 13.292969 3.4375 13.226562 C 3.339844 13.140625 3.378906 12.976562 3.503906 12.925781 C 3.554688 12.90625 3.597656 12.910156 3.65625 12.9375 Z M 4.304688 12.945312 C 4.367188 12.992188 4.390625 13.035156 4.390625 13.101562 C 4.390625 13.195312 4.320312 13.269531 4.21875 13.285156 C 4.117188 13.296875 4.007812 13.203125 4.007812 13.097656 C 4.007812 12.960938 4.191406 12.867188 4.304688 12.945312 Z M 4.875 12.9375 C 5.011719 13.007812 5.011719 13.195312 4.875 13.265625 C 4.75 13.328125 4.601562 13.238281 4.601562 13.101562 C 4.601562 12.960938 4.75 12.871094 4.875 12.9375 Z M 6.738281 12.933594 C 6.800781 12.964844 6.839844 13.027344 6.839844 13.101562 C 6.839844 13.171875 6.800781 13.234375 6.738281 13.265625 C 6.609375 13.328125 6.464844 13.238281 6.464844 13.101562 C 6.464844 12.960938 6.613281 12.875 6.738281 12.933594 Z M 2.390625 13.550781 C 2.597656 13.65625 2.464844 13.957031 2.246094 13.890625 C 2.042969 13.824219 2.09375 13.535156 2.308594 13.527344 C 2.324219 13.523438 2.359375 13.539062 2.390625 13.550781 Z M 3.046875 13.550781 C 3.191406 13.609375 3.191406 13.808594 3.050781 13.878906 C 2.925781 13.9375 2.78125 13.851562 2.78125 13.714844 C 2.78125 13.648438 2.804688 13.597656 2.855469 13.566406 C 2.917969 13.519531 2.972656 13.515625 3.046875 13.550781 Z M 3.65625 13.550781 C 3.851562 13.644531 3.75 13.933594 3.535156 13.894531 C 3.390625 13.867188 3.328125 13.683594 3.4375 13.582031 C 3.503906 13.523438 3.574219 13.511719 3.65625 13.550781 Z M 4.304688 13.558594 C 4.390625 13.621094 4.414062 13.703125 4.371094 13.792969 C 4.304688 13.925781 4.113281 13.933594 4.039062 13.804688 C 4.003906 13.742188 4 13.699219 4.035156 13.628906 C 4.082031 13.53125 4.21875 13.496094 4.304688 13.558594 Z M 4.882812 14.140625 C 4.976562 14.171875 5.03125 14.269531 5.003906 14.359375 C 4.988281 14.421875 4.917969 14.484375 4.855469 14.496094 C 4.792969 14.507812 4.703125 14.472656 4.664062 14.421875 C 4.625 14.367188 4.625 14.261719 4.664062 14.203125 C 4.714844 14.136719 4.804688 14.109375 4.882812 14.140625 Z M 4.882812 14.140625 "/>
<path style=" stroke:none;fill-rule:nonzero;fill:rgb(70.588237%,74.509805%,99.607843%);fill-opacity:1;" d="M 7.992188 1.734375 L 7.992188 3.40625 L 8.203125 3.613281 L 8.417969 3.820312 L 8.417969 4.257812 L 8.222656 4.445312 L 8.03125 4.632812 L 8.03125 4.886719 L 9.433594 4.886719 L 9.554688 5.003906 L 9.671875 5.117188 L 9.671875 6.085938 L 10.152344 6.085938 L 10.152344 5.34375 L 10.492188 5.015625 L 10.828125 4.6875 L 11.191406 4.6875 L 11.839844 5.3125 L 12.386719 5.3125 C 12.921875 5.3125 12.933594 5.3125 12.917969 5.289062 C 12.90625 5.269531 12.910156 5.25 12.929688 5.203125 L 12.957031 5.136719 L 12.085938 5.136719 L 11.871094 4.929688 C 11.753906 4.816406 11.648438 4.726562 11.640625 4.726562 C 11.628906 4.726562 11.601562 4.707031 11.578125 4.683594 C 11.507812 4.613281 11.503906 4.546875 11.570312 4.472656 C 11.636719 4.402344 11.757812 4.414062 11.8125 4.492188 C 11.835938 4.527344 11.839844 4.609375 11.820312 4.648438 C 11.808594 4.667969 11.832031 4.695312 11.976562 4.835938 L 12.148438 5 L 12.570312 5 C 12.828125 5 12.996094 4.996094 13.003906 4.988281 C 13.007812 4.980469 13.019531 4.925781 13.027344 4.867188 C 13.046875 4.738281 13.039062 4.71875 12.976562 4.730469 C 12.925781 4.738281 12.859375 4.714844 12.820312 4.675781 C 12.78125 4.632812 12.785156 4.523438 12.828125 4.484375 C 12.871094 4.4375 12.933594 4.417969 12.984375 4.4375 C 13.007812 4.445312 13.027344 4.449219 13.027344 4.449219 C 13.03125 4.449219 13.011719 4.324219 13.003906 4.3125 C 13 4.304688 12.9375 4.300781 12.863281 4.300781 L 12.730469 4.300781 L 12.605469 4.421875 C 12.488281 4.535156 12.476562 4.546875 12.476562 4.59375 C 12.476562 4.628906 12.46875 4.648438 12.433594 4.683594 C 12.398438 4.71875 12.382812 4.726562 12.332031 4.726562 C 12.222656 4.726562 12.140625 4.617188 12.179688 4.527344 C 12.21875 4.4375 12.324219 4.398438 12.40625 4.449219 L 12.449219 4.472656 L 12.691406 4.238281 L 12.996094 4.238281 L 12.988281 4.203125 C 12.984375 4.183594 12.980469 4.164062 12.976562 4.15625 C 12.972656 4.148438 12.953125 4.136719 12.925781 4.132812 C 12.832031 4.113281 12.773438 4.027344 12.796875 3.941406 C 12.800781 3.921875 12.824219 3.890625 12.847656 3.867188 C 12.886719 3.832031 12.894531 3.820312 12.886719 3.789062 L 12.875 3.75 L 12.679688 3.75 L 12.578125 3.847656 C 12.488281 3.933594 12.476562 3.949219 12.476562 3.988281 C 12.476562 4.074219 12.382812 4.144531 12.292969 4.128906 C 12.242188 4.117188 12.183594 4.058594 12.171875 4.003906 C 12.160156 3.941406 12.199219 3.878906 12.261719 3.84375 C 12.300781 3.824219 12.316406 3.820312 12.363281 3.832031 L 12.421875 3.847656 L 12.523438 3.75 L 12.628906 3.648438 L 12.734375 3.648438 C 12.859375 3.648438 12.855469 3.675781 12.765625 3.441406 L 12.707031 3.289062 L 12.5625 3.289062 L 12.210938 3.628906 C 11.921875 3.910156 11.859375 3.976562 11.847656 4.019531 C 11.8125 4.140625 11.671875 4.179688 11.585938 4.097656 C 11.515625 4.027344 11.527344 3.914062 11.613281 3.863281 C 11.664062 3.832031 11.710938 3.832031 11.757812 3.859375 L 11.796875 3.875 L 12.160156 3.523438 L 12.523438 3.175781 L 12.660156 3.175781 L 12.558594 2.984375 L 12.460938 2.789062 L 12.4375 2.835938 C 12.398438 2.921875 12.292969 2.949219 12.210938 2.898438 C 12.152344 2.867188 12.136719 2.832031 12.144531 2.757812 L 12.152344 2.691406 L 11.910156 2.457031 L 11.910156 2.230469 L 11.90625 2.007812 L 11.78125 1.867188 L 11.78125 2.332031 L 11.625 2.480469 L 11.46875 2.632812 L 11.46875 3.078125 L 11.019531 3.515625 C 10.574219 3.945312 10.574219 3.949219 10.574219 3.996094 C 10.585938 4.140625 10.398438 4.210938 10.300781 4.097656 C 10.25 4.039062 10.253906 3.964844 10.3125 3.902344 C 10.355469 3.859375 10.359375 3.855469 10.433594 3.855469 L 10.511719 3.855469 L 10.933594 3.449219 L 11.351562 3.042969 L 11.351562 2.59375 L 11.515625 2.4375 L 11.675781 2.28125 L 11.675781 1.753906 L 11.613281 1.695312 L 11.546875 1.632812 L 11.546875 2.257812 L 11.351562 2.445312 C 11.171875 2.621094 11.160156 2.632812 11.160156 2.679688 C 11.160156 2.707031 11.167969 2.734375 11.183594 2.753906 C 11.296875 2.867188 11.140625 3.054688 10.992188 2.984375 C 10.886719 2.925781 10.890625 2.757812 11.003906 2.710938 C 11.039062 2.699219 11.042969 2.691406 11.042969 2.644531 C 11.042969 2.59375 11.050781 2.585938 11.242188 2.398438 L 11.445312 2.207031 L 11.445312 1.542969 L 11.410156 1.511719 L 11.378906 1.484375 L 11.378906 1.96875 L 11.285156 2.0625 C 11.191406 2.148438 11.1875 2.15625 11.199219 2.191406 C 11.246094 2.316406 11.101562 2.429688 10.976562 2.367188 C 10.925781 2.339844 10.902344 2.300781 10.902344 2.238281 C 10.902344 2.148438 10.964844 2.085938 11.058594 2.085938 C 11.09375 2.085938 11.117188 2.074219 11.183594 2.007812 L 11.261719 1.929688 L 11.261719 1.382812 L 11.15625 1.296875 C 11.015625 1.1875 10.871094 1.085938 10.851562 1.085938 C 10.847656 1.085938 10.828125 1.101562 10.8125 1.117188 L 10.785156 1.144531 L 10.785156 2.53125 L 10.671875 2.640625 C 10.566406 2.742188 10.5625 2.75 10.574219 2.78125 C 10.609375 2.855469 10.582031 2.941406 10.511719 2.980469 C 10.414062 3.035156 10.28125 2.960938 10.28125 2.851562 C 10.28125 2.769531 10.347656 2.699219 10.425781 2.699219 C 10.445312 2.699219 10.492188 2.664062 10.570312 2.589844 L 10.679688 2.480469 L 10.679688 1.09375 L 10.722656 1.054688 L 10.761719 1.015625 L 10.695312 0.976562 C 10.660156 0.953125 10.628906 0.9375 10.621094 0.9375 C 10.613281 0.9375 10.574219 0.972656 10.527344 1.015625 L 10.449219 1.09375 L 10.449219 2.082031 L 10.492188 2.105469 C 10.636719 2.179688 10.585938 2.386719 10.421875 2.386719 C 10.335938 2.386719 10.265625 2.320312 10.265625 2.234375 C 10.265625 2.191406 10.308594 2.113281 10.332031 2.113281 C 10.339844 2.113281 10.34375 1.929688 10.34375 1.578125 L 10.34375 1.042969 L 10.429688 0.960938 C 10.476562 0.917969 10.511719 0.878906 10.511719 0.875 C 10.511719 0.871094 10.480469 0.851562 10.441406 0.828125 L 10.367188 0.785156 L 10.164062 0.980469 L 10.164062 3.105469 L 10.253906 3.195312 C 10.347656 3.285156 10.351562 3.285156 10.410156 3.285156 C 10.515625 3.28125 10.585938 3.355469 10.574219 3.453125 C 10.554688 3.582031 10.398438 3.628906 10.304688 3.527344 C 10.269531 3.488281 10.265625 3.476562 10.269531 3.421875 L 10.277344 3.363281 L 10.160156 3.253906 L 10.046875 3.144531 L 10.046875 0.945312 L 10.152344 0.84375 C 10.207031 0.789062 10.253906 0.738281 10.253906 0.734375 C 10.253906 0.726562 10.195312 0.695312 10.121094 0.664062 L 9.988281 0.601562 L 9.921875 0.667969 L 9.851562 0.730469 L 9.851562 2.082031 L 9.886719 2.113281 C 9.949219 2.171875 9.9375 2.292969 9.859375 2.339844 C 9.839844 2.351562 9.796875 2.363281 9.765625 2.363281 C 9.71875 2.363281 9.699219 2.355469 9.664062 2.320312 C 9.628906 2.285156 9.621094 2.269531 9.621094 2.222656 C 9.621094 2.15625 9.660156 2.089844 9.703125 2.078125 L 9.738281 2.074219 L 9.738281 0.695312 L 9.808594 0.625 L 9.882812 0.554688 L 9.769531 0.507812 C 9.707031 0.484375 9.652344 0.460938 9.640625 0.460938 C 9.632812 0.460938 9.597656 0.492188 9.558594 0.527344 L 9.492188 0.59375 L 9.492188 2.304688 L 9.691406 2.5 C 9.9375 2.734375 9.976562 2.800781 9.925781 2.898438 C 9.875 2.992188 9.71875 3 9.65625 2.910156 C 9.613281 2.851562 9.640625 2.730469 9.699219 2.699219 C 9.726562 2.6875 9.71875 2.675781 9.558594 2.519531 L 9.386719 2.355469 L 9.386719 0.546875 L 9.519531 0.414062 L 9.445312 0.386719 C 9.402344 0.371094 9.351562 0.359375 9.332031 0.355469 L 9.296875 0.347656 L 9.296875 2.417969 L 9.515625 2.644531 L 9.515625 3.136719 L 9.632812 3.199219 C 9.695312 3.234375 9.761719 3.261719 9.78125 3.261719 C 9.867188 3.261719 9.941406 3.347656 9.925781 3.433594 C 9.910156 3.53125 9.789062 3.589844 9.699219 3.546875 C 9.644531 3.515625 9.617188 3.460938 9.625 3.382812 L 9.632812 3.316406 L 9.414062 3.199219 L 9.414062 2.683594 L 9.304688 2.578125 L 9.195312 2.46875 L 9.195312 0.3125 L 9.160156 0.296875 C 9.136719 0.292969 9.105469 0.28125 9.089844 0.277344 L 9.050781 0.269531 L 9.050781 2.429688 L 9.136719 2.570312 L 9.21875 2.707031 L 9.21875 3.332031 L 9.496094 3.597656 C 9.6875 3.785156 9.78125 3.863281 9.800781 3.863281 C 9.863281 3.863281 9.929688 3.9375 9.929688 4.007812 C 9.929688 4.078125 9.847656 4.164062 9.777344 4.164062 C 9.730469 4.164062 9.660156 4.125 9.640625 4.085938 C 9.613281 4.039062 9.617188 3.960938 9.640625 3.925781 C 9.660156 3.898438 9.65625 3.894531 9.390625 3.640625 L 9.117188 3.382812 L 9.117188 2.746094 L 9.03125 2.605469 L 8.949219 2.464844 L 8.949219 1.351562 C 8.949219 0.246094 8.949219 0.238281 8.921875 0.238281 C 8.898438 0.238281 8.898438 0.246094 8.898438 1.699219 L 8.898438 3.15625 L 8.800781 3.25 C 8.703125 3.34375 8.703125 3.34375 8.703125 3.40625 C 8.703125 3.460938 8.695312 3.480469 8.667969 3.511719 C 8.542969 3.636719 8.335938 3.503906 8.410156 3.34375 C 8.441406 3.289062 8.492188 3.261719 8.566406 3.265625 C 8.621094 3.265625 8.628906 3.265625 8.710938 3.1875 L 8.792969 3.109375 L 8.792969 0.203125 L 8.734375 0.1875 C 8.703125 0.179688 8.675781 0.175781 8.671875 0.175781 C 8.667969 0.175781 8.664062 0.613281 8.664062 1.144531 C 8.664062 1.980469 8.667969 2.121094 8.683594 2.140625 C 8.695312 2.15625 8.703125 2.191406 8.703125 2.222656 C 8.703125 2.269531 8.695312 2.285156 8.660156 2.320312 C 8.621094 2.355469 8.605469 2.363281 8.5625 2.363281 C 8.425781 2.363281 8.351562 2.246094 8.417969 2.140625 C 8.445312 2.101562 8.445312 2.078125 8.445312 1.113281 L 8.445312 0.128906 L 8.394531 0.121094 C 8.367188 0.117188 8.335938 0.113281 8.320312 0.113281 L 8.289062 0.113281 L 8.289062 2.457031 L 8.402344 2.566406 C 8.5 2.660156 8.523438 2.675781 8.558594 2.675781 C 8.652344 2.675781 8.714844 2.738281 8.714844 2.832031 C 8.714844 2.882812 8.710938 2.894531 8.671875 2.933594 C 8.636719 2.96875 8.617188 2.976562 8.574219 2.976562 C 8.472656 2.976562 8.394531 2.894531 8.410156 2.804688 C 8.414062 2.769531 8.40625 2.757812 8.28125 2.636719 L 8.148438 2.507812 L 8.148438 1.296875 C 8.148438 0.632812 8.144531 0.0859375 8.136719 0.0820312 C 8.132812 0.078125 8.097656 0.0742188 8.058594 0.0703125 L 7.992188 0.0585938 Z M 8.664062 4.453125 C 8.789062 4.535156 8.730469 4.726562 8.578125 4.726562 C 8.53125 4.726562 8.511719 4.71875 8.476562 4.683594 C 8.414062 4.628906 8.402344 4.5625 8.445312 4.5 C 8.503906 4.421875 8.585938 4.402344 8.664062 4.453125 Z M 9.296875 4.441406 C 9.347656 4.46875 9.375 4.515625 9.375 4.582031 C 9.375 4.632812 9.367188 4.644531 9.332031 4.683594 C 9.292969 4.71875 9.277344 4.726562 9.234375 4.726562 C 9.125 4.726562 9.054688 4.65625 9.070312 4.558594 C 9.082031 4.453125 9.199219 4.394531 9.296875 4.441406 Z M 9.898438 4.441406 C 9.96875 4.46875 10 4.519531 9.992188 4.589844 C 9.980469 4.734375 9.8125 4.78125 9.71875 4.671875 C 9.652344 4.597656 9.683594 4.484375 9.78125 4.441406 C 9.832031 4.421875 9.84375 4.421875 9.898438 4.441406 Z M 10.566406 4.445312 C 10.636719 4.480469 10.667969 4.597656 10.621094 4.660156 C 10.59375 4.695312 10.535156 4.726562 10.488281 4.726562 C 10.359375 4.726562 10.285156 4.582031 10.367188 4.488281 C 10.421875 4.421875 10.492188 4.410156 10.566406 4.445312 Z M 10.566406 4.445312 "/>
<path style=" stroke:none;fill-rule:nonzero;fill:rgb(70.588237%,74.509805%,99.607843%);fill-opacity:1;" d="M 12.027344 2.289062 L 12.027344 2.417969 L 12.132812 2.523438 C 12.238281 2.621094 12.246094 2.628906 12.300781 2.628906 C 12.335938 2.632812 12.363281 2.628906 12.363281 2.625 C 12.363281 2.617188 12.09375 2.234375 12.058594 2.195312 L 12.027344 2.15625 Z M 12.027344 2.289062 "/>
<path style=" stroke:none;fill-rule:nonzero;fill:rgb(70.588237%,74.509805%,99.607843%);fill-opacity:1;" d="M 14.722656 8.476562 L 14.449219 8.742188 L 14.578125 8.675781 C 14.769531 8.578125 14.84375 8.523438 14.925781 8.421875 C 14.96875 8.367188 15.007812 8.257812 14.996094 8.226562 C 14.996094 8.21875 14.871094 8.332031 14.722656 8.476562 Z M 14.722656 8.476562 "/>
<path style=" stroke:none;fill-rule:nonzero;fill:rgb(70.588237%,74.509805%,99.607843%);fill-opacity:1;" d="M 11.492188 11.210938 L 11.429688 11.269531 L 11.429688 11.667969 L 11.191406 11.898438 L 10.953125 12.132812 L 10.953125 13.894531 L 11 13.941406 C 11.042969 13.984375 11.058594 13.988281 11.113281 13.988281 L 11.175781 13.988281 L 11.015625 13.828125 L 11.015625 12.445312 L 11.15625 12.3125 L 11.292969 12.175781 L 11.277344 12.132812 C 11.253906 12.066406 11.265625 11.992188 11.308594 11.949219 C 11.386719 11.871094 11.484375 11.875 11.558594 11.957031 C 11.636719 12.039062 11.601562 12.171875 11.496094 12.21875 C 11.453125 12.238281 11.433594 12.238281 11.398438 12.230469 C 11.355469 12.214844 11.355469 12.214844 11.21875 12.347656 L 11.082031 12.480469 L 11.082031 13.792969 L 11.183594 13.890625 L 11.28125 13.988281 L 11.449219 13.988281 L 11.332031 13.871094 L 11.210938 13.757812 L 11.210938 12.605469 L 12.085938 11.761719 L 12.832031 11.761719 C 13.242188 11.761719 13.578125 11.757812 13.578125 11.753906 C 13.578125 11.746094 13.582031 11.730469 13.585938 11.714844 L 13.59375 11.6875 L 12.007812 11.6875 L 11.921875 11.605469 L 11.835938 11.519531 L 11.777344 11.546875 C 11.710938 11.578125 11.691406 11.582031 11.632812 11.558594 C 11.574219 11.535156 11.535156 11.472656 11.535156 11.402344 C 11.535156 11.332031 11.566406 11.28125 11.632812 11.25 C 11.746094 11.195312 11.871094 11.277344 11.871094 11.410156 C 11.871094 11.453125 11.878906 11.472656 11.949219 11.542969 L 12.027344 11.625 L 13.601562 11.625 L 13.613281 11.589844 C 13.621094 11.570312 13.628906 11.546875 13.636719 11.535156 C 13.644531 11.515625 13.601562 11.511719 12.871094 11.511719 L 12.097656 11.511719 L 12.042969 11.460938 L 11.988281 11.40625 L 11.988281 11.214844 L 11.929688 11.183594 C 11.878906 11.152344 11.863281 11.148438 11.714844 11.148438 L 11.550781 11.148438 Z M 11.492188 11.210938 "/>
<path style=" stroke:none;fill-rule:nonzero;fill:rgb(70.588237%,74.509805%,99.607843%);fill-opacity:1;" d="M 11.695312 12.230469 L 11.277344 12.632812 L 11.277344 13.71875 L 11.414062 13.855469 L 11.554688 13.988281 L 11.726562 13.988281 L 11.726562 13.390625 L 11.773438 13.3125 L 11.820312 13.238281 L 11.820312 12.480469 L 12.035156 12.269531 L 12.253906 12.0625 L 13.65625 12.0625 L 13.648438 12.035156 C 13.644531 12.019531 13.640625 12.003906 13.640625 11.996094 C 13.640625 11.992188 13.320312 11.988281 12.925781 11.988281 L 12.214844 11.988281 L 11.898438 12.292969 L 11.585938 12.59375 L 11.585938 12.933594 L 11.632812 12.953125 C 11.722656 12.996094 11.75 13.128906 11.6875 13.203125 C 11.59375 13.324219 11.417969 13.277344 11.386719 13.128906 C 11.371094 13.066406 11.417969 12.980469 11.476562 12.953125 L 11.523438 12.933594 L 11.523438 12.570312 L 11.863281 12.238281 L 12.199219 11.914062 L 12.902344 11.914062 C 13.660156 11.914062 13.625 11.917969 13.589844 11.847656 C 13.578125 11.828125 13.554688 11.824219 12.84375 11.824219 L 12.109375 11.824219 Z M 11.695312 12.230469 "/>
<path style=" stroke:none;fill-rule:nonzero;fill:rgb(70.588237%,74.509805%,99.607843%);fill-opacity:1;" d="M 12.082031 12.328125 L 11.882812 12.519531 L 11.882812 13.265625 L 11.839844 13.34375 L 11.792969 13.421875 L 11.796875 13.703125 L 11.800781 13.980469 L 11.878906 13.980469 L 11.882812 13.679688 L 11.882812 13.378906 L 12 13.269531 L 12 12.90625 L 12.097656 12.851562 L 12.195312 12.800781 L 13.324219 12.800781 L 13.410156 12.882812 C 13.492188 12.960938 13.496094 12.960938 13.539062 12.949219 C 13.609375 12.929688 13.6875 12.972656 13.722656 13.042969 C 13.753906 13.117188 13.742188 13.179688 13.6875 13.234375 C 13.632812 13.285156 13.570312 13.296875 13.503906 13.265625 C 13.414062 13.222656 13.375 13.128906 13.414062 13.046875 L 13.433594 13.007812 L 13.363281 12.933594 L 13.289062 12.863281 L 12.230469 12.863281 L 12.148438 12.90625 L 12.066406 12.953125 L 12.066406 13.308594 L 11.949219 13.417969 L 11.949219 13.699219 C 11.953125 14.019531 11.945312 13.996094 12.074219 13.980469 L 12.144531 13.972656 L 12.039062 13.867188 L 12.039062 13.480469 L 12.273438 13.253906 L 12.246094 13.210938 C 12.214844 13.160156 12.210938 13.078125 12.238281 13.023438 C 12.28125 12.953125 12.40625 12.921875 12.476562 12.972656 C 12.613281 13.066406 12.558594 13.261719 12.390625 13.285156 C 12.347656 13.289062 12.320312 13.308594 12.226562 13.398438 L 12.113281 13.511719 L 12.113281 13.675781 L 12.117188 13.84375 L 12.25 13.976562 L 12.507812 13.976562 L 12.464844 13.929688 C 12.4375 13.902344 12.410156 13.886719 12.386719 13.886719 C 12.335938 13.886719 12.28125 13.859375 12.246094 13.816406 C 12.226562 13.792969 12.21875 13.765625 12.21875 13.714844 C 12.21875 13.652344 12.222656 13.640625 12.269531 13.597656 C 12.3125 13.558594 12.328125 13.550781 12.375 13.550781 C 12.523438 13.550781 12.605469 13.703125 12.519531 13.824219 L 12.492188 13.859375 L 12.554688 13.917969 C 12.613281 13.972656 12.617188 13.976562 12.6875 13.976562 C 12.726562 13.976562 12.765625 13.96875 12.769531 13.964844 C 12.773438 13.957031 12.738281 13.921875 12.699219 13.882812 L 12.621094 13.808594 L 12.621094 13.34375 L 12.71875 13.273438 L 12.8125 13.207031 L 12.804688 13.140625 C 12.785156 12.96875 12.980469 12.875 13.097656 13.007812 C 13.128906 13.042969 13.136719 13.0625 13.136719 13.109375 C 13.136719 13.140625 13.128906 13.179688 13.121094 13.199219 C 13.082031 13.269531 12.988281 13.300781 12.914062 13.269531 L 12.863281 13.25 L 12.777344 13.316406 L 12.683594 13.382812 L 12.699219 13.78125 L 12.785156 13.863281 L 12.871094 13.949219 L 12.976562 13.914062 C 13.03125 13.894531 13.113281 13.863281 13.15625 13.847656 L 13.230469 13.8125 L 13.203125 13.78125 C 13.164062 13.738281 13.148438 13.742188 13.121094 13.792969 C 13.078125 13.875 12.976562 13.910156 12.890625 13.867188 C 12.773438 13.808594 12.773438 13.628906 12.894531 13.566406 C 12.980469 13.523438 13.109375 13.574219 13.128906 13.65625 C 13.136719 13.679688 13.148438 13.6875 13.171875 13.6875 C 13.195312 13.6875 13.222656 13.703125 13.253906 13.730469 L 13.300781 13.773438 L 13.347656 13.742188 C 13.375 13.726562 13.398438 13.703125 13.398438 13.699219 C 13.398438 13.691406 13.40625 13.664062 13.417969 13.640625 C 13.441406 13.589844 13.503906 13.550781 13.554688 13.550781 C 13.59375 13.550781 13.660156 13.480469 13.757812 13.339844 C 13.832031 13.234375 13.875 13.132812 13.882812 13.039062 L 13.890625 12.972656 L 13.679688 12.765625 L 13.46875 12.5625 L 13.105469 12.5625 L 13.082031 12.609375 C 13.070312 12.636719 13.042969 12.667969 13.019531 12.679688 C 12.96875 12.710938 12.882812 12.707031 12.84375 12.675781 C 12.800781 12.648438 12.761719 12.578125 12.761719 12.53125 C 12.761719 12.457031 12.855469 12.363281 12.929688 12.363281 C 12.984375 12.363281 13.046875 12.398438 13.074219 12.445312 L 13.101562 12.488281 L 13.492188 12.488281 L 13.691406 12.675781 L 13.890625 12.867188 L 13.882812 12.792969 C 13.871094 12.699219 13.835938 12.566406 13.777344 12.390625 L 13.730469 12.25 L 12.664062 12.25 L 12.5625 12.347656 C 12.46875 12.441406 12.464844 12.449219 12.476562 12.476562 C 12.488281 12.492188 12.492188 12.53125 12.488281 12.566406 C 12.480469 12.617188 12.472656 12.636719 12.433594 12.671875 C 12.394531 12.707031 12.378906 12.710938 12.324219 12.710938 C 12.269531 12.710938 12.25 12.707031 12.210938 12.671875 C 12.171875 12.636719 12.164062 12.621094 12.160156 12.5625 C 12.152344 12.503906 12.15625 12.484375 12.183594 12.449219 C 12.222656 12.390625 12.304688 12.363281 12.363281 12.386719 C 12.40625 12.398438 12.40625 12.398438 12.515625 12.292969 L 12.628906 12.1875 L 13.160156 12.1875 C 13.683594 12.1875 13.695312 12.1875 13.695312 12.164062 C 13.695312 12.136719 13.683594 12.136719 12.984375 12.136719 L 12.277344 12.136719 Z M 12.082031 12.328125 "/>
<path style=" stroke:none;fill-rule:nonzero;fill:rgb(70.588237%,74.509805%,99.607843%);fill-opacity:1;" d="M 1.847656 14.824219 C 1.84375 14.84375 1.84375 14.863281 1.851562 14.863281 C 1.855469 14.863281 1.863281 14.84375 1.863281 14.824219 C 1.863281 14.804688 1.859375 14.789062 1.855469 14.789062 C 1.855469 14.789062 1.847656 14.804688 1.847656 14.824219 Z M 1.847656 14.824219 "/>
<path style=" stroke:none;fill-rule:nonzero;fill:rgb(70.588237%,74.509805%,99.607843%);fill-opacity:1;" d="M 1.679688 15.675781 C 1.648438 15.824219 1.621094 15.957031 1.617188 15.972656 L 1.613281 16 L 3.226562 16 L 3.011719 15.925781 C 2.59375 15.785156 2.28125 15.660156 1.921875 15.496094 C 1.824219 15.449219 1.742188 15.414062 1.738281 15.414062 C 1.738281 15.414062 1.710938 15.53125 1.679688 15.675781 Z M 1.679688 15.675781 "/>
</g>
</svg>
