<?xml version="1.0" standalone="no"?>
<!DOCTYPE svg PUBLIC "-//W3C//DTD SVG 20010904//EN"
 "http://www.w3.org/TR/2001/REC-SVG-20010904/DTD/svg10.dtd">
<svg version="1.0" xmlns="http://www.w3.org/2000/svg"
 width="190.000000pt" height="190.000000pt" viewBox="0 0 190.000000 190.000000"
 preserveAspectRatio="xMidYMid meet">

<g transform="translate(0.000000,190.000000) scale(0.100000,-0.100000)"
fill="#000000" stroke="none">
<path d="M882 1719 c-149 -18 -275 -82 -388 -194 -68 -67 -89 -96 -127 -175
-41 -86 -77 -200 -77 -243 0 -12 -9 -17 -30 -17 -29 0 -30 -2 -30 -44 0 -52
14 -93 41 -122 16 -17 19 -33 17 -75 -3 -50 -5 -53 -36 -61 -17 -5 -32 -14
-32 -21 0 -18 46 -114 59 -121 7 -5 11 -60 11 -162 l0 -154 90 0 90 0 62 -46
c135 -99 266 -144 423 -144 159 0 323 58 429 151 l44 39 96 0 96 0 0 151 c0
135 2 154 20 179 19 27 54 110 48 115 -2 1 -16 7 -33 12 -28 9 -30 14 -33 61
-2 41 2 58 22 89 16 24 28 60 32 96 l7 57 -32 0 c-17 0 -33 6 -35 13 -2 6 -9
41 -16 77 -15 84 -51 169 -107 252 -131 198 -381 315 -611 287z m116 -36 c-21
-2 -57 -2 -80 0 -24 2 -7 4 37 4 44 0 63 -2 43 -4z m-176 -19 c-89 -23 -161
-65 -241 -138 -42 -39 -62 -55 -46 -37 55 61 117 116 154 135 54 29 133 55
161 55 14 0 2 -6 -28 -15z m251 9 c-7 -2 -19 -2 -25 0 -7 3 -2 5 12 5 14 0 19
-2 13 -5z m72 -18 c39 -17 21 -18 -25 0 -19 7 -28 14 -20 14 8 0 29 -6 45 -14z
m92 -40 c23 -14 43 -31 43 -38 0 -8 -3 -9 -8 -1 -4 6 -27 22 -52 37 -25 15
-41 27 -36 27 5 0 29 -11 53 -25z m-347 -37 c-61 -24 -76 -36 -92 -68 -14 -27
-18 -30 -18 -14 0 26 35 73 64 84 11 5 32 9 46 9 l25 0 -25 -11z m-336 -26
c-18 -15 -45 -41 -60 -58 -16 -16 -22 -21 -14 -10 27 39 84 96 95 96 5 0 -4
-13 -21 -28z m862 -49 c26 -35 41 -65 20 -38 -9 11 -38 42 -64 69 -40 43 -42
46 -12 23 20 -14 45 -38 56 -54z m-71 17 c27 -27 47 -50 44 -50 -3 0 -27 23
-54 50 -27 28 -47 50 -44 50 3 0 27 -22 54 -50z m-615 26 c0 -22 -16 -28 -29
-12 -9 11 -9 15 1 19 22 9 28 8 28 -7z m173 3 c-18 -5 -35 -14 -38 -19 -3 -6
-12 -10 -18 -10 -7 1 -1 10 12 20 13 11 35 20 50 19 25 -1 24 -1 -6 -10z m287
-3 c0 -3 -4 -8 -10 -11 -5 -3 -10 -1 -10 4 0 6 5 11 10 11 6 0 10 -2 10 -4z
m-507 -20 c3 -8 3 -17 0 -20 -9 -9 -34 15 -27 25 8 13 21 11 27 -5z m556 5
c13 -8 8 -31 -7 -31 -17 1 -34 19 -28 29 9 13 16 14 35 2z m-279 -10 c-19 -4
-48 -15 -65 -25 l-30 -18 28 26 c21 19 38 26 65 25 l37 -1 -35 -7z m-312 -28
c-4 -22 -22 -20 -26 1 -2 10 3 16 13 16 10 0 15 -7 13 -17z m632 -3 c0 -13 -5
-18 -15 -14 -16 7 -19 17 -8 27 12 13 23 7 23 -13z m-600 -30 c-37 -31 -50
-36 -50 -21 0 14 50 51 68 51 11 0 4 -11 -18 -30z m320 22 c0 -5 -17 -9 -37
-10 -28 -1 -34 1 -23 8 19 12 60 13 60 2z m241 -9 c16 -10 29 -23 29 -30 0 -9
-11 -6 -35 9 -53 35 -48 52 6 21z m-621 0 c-1 -20 -16 -31 -30 -22 -13 8 -13
10 0 19 18 12 30 13 30 3z m695 -23 c-5 -8 -11 -8 -17 -2 -6 6 -7 16 -3 22 5
8 11 8 17 2 6 -6 7 -16 3 -22z m-565 -15 c-8 -9 -13 -38 -12 -67 1 -36 -2 -48
-10 -40 -6 6 -10 33 -10 61 0 54 17 90 35 72 7 -7 6 -15 -3 -26z m669 -9 c-3
-3 -11 5 -18 17 -13 21 -12 21 5 5 10 -10 16 -20 13 -22z m-829 5 c0 -14 -18
-23 -30 -16 -6 4 -8 11 -5 16 8 12 35 12 35 0z m322 -31 c9 0 19 -4 23 -9 3
-5 27 -17 54 -26 29 -9 56 -26 65 -41 9 -13 22 -24 29 -23 8 0 9 2 1 5 -7 3
-10 14 -7 25 3 10 -1 27 -8 37 -13 15 -12 16 4 3 9 -7 17 -23 17 -35 0 -12 5
-27 12 -34 9 -9 1 -12 -38 -12 -29 0 -59 -7 -72 -16 -21 -14 -23 -23 -21 -83
l2 -66 -31 1 c-38 2 -42 -12 -8 -27 36 -17 88 16 56 36 -15 9 -12 68 4 91 15
19 15 19 29 -1 12 -16 17 -17 30 -6 9 7 21 10 27 6 14 -9 13 -105 -3 -151 -7
-22 -12 -46 -12 -54 0 -8 -6 -14 -13 -12 -8 1 -11 -2 -8 -7 13 -20 -45 -51
-96 -51 -43 0 -54 5 -93 41 -69 64 -79 103 -72 271 8 170 16 187 75 157 20
-11 44 -19 54 -19z m438 24 c0 -11 -5 -14 -16 -10 -9 3 -18 6 -20 6 -3 0 -2 5
1 10 10 16 35 12 35 -6z m-881 -30 c29 -37 26 -51 -4 -17 l-24 28 -1 -43 c0
-24 5 -53 12 -65 10 -19 9 -20 -4 -9 -20 16 -29 63 -21 102 7 37 16 38 42 4z
m211 16 c0 -5 -4 -10 -10 -10 -5 0 -10 5 -10 10 0 6 5 10 10 10 6 0 10 -4 10
-10z m560 0 c0 -5 -4 -10 -10 -10 -5 0 -10 5 -10 10 0 6 5 10 10 10 6 0 10 -4
10 -10z m239 -50 c0 -19 -7 -46 -15 -60 -10 -16 -13 -18 -8 -5 13 38 16 73 7
90 -9 15 -13 12 -31 -17 -12 -18 -22 -28 -22 -21 0 6 12 26 26 43 31 36 44 27
43 -30z m-922 33 c3 -7 -4 -9 -16 -6 -12 3 -18 9 -15 15 7 11 26 6 31 -9z
m823 4 c0 -8 -3 -16 -6 -20 -8 -8 -33 16 -27 26 7 12 33 8 33 -6z m-363 -3
c-3 -3 -12 -4 -19 -1 -8 3 -5 6 6 6 11 1 17 -2 13 -5z m-327 -54 c0 -5 -4 -10
-10 -10 -5 0 -10 5 -10 10 0 6 5 10 10 10 6 0 10 -4 10 -10z m540 0 c0 -5 -4
-10 -10 -10 -5 0 -10 5 -10 10 0 6 5 10 10 10 6 0 10 -4 10 -10z m111 -7 c13
-16 12 -17 -3 -4 -10 7 -18 15 -18 17 0 8 8 3 21 -13z m189 -28 c0 -5 -5 -3
-10 5 -5 8 -10 20 -10 25 0 6 5 3 10 -5 5 -8 10 -19 10 -25z m-965 -65 c-33
-49 -35 -50 -35 -24 0 16 4 35 9 42 8 13 53 41 59 37 1 -1 -13 -26 -33 -55z
m782 35 c19 -14 41 -70 31 -81 -4 -4 -68 82 -68 91 0 9 16 5 37 -10z m-667 -5
c0 -5 -4 -10 -10 -10 -5 0 -10 5 -10 10 0 6 5 10 10 10 6 0 10 -4 10 -10z
m560 0 c0 -5 -4 -10 -10 -10 -5 0 -10 5 -10 10 0 6 5 10 10 10 6 0 10 -4 10
-10z m-499 -27 c1 -16 0 -38 0 -50 -1 -11 3 -24 8 -28 6 -3 11 -11 11 -16 0
-19 -22 3 -35 35 -14 32 -10 86 6 86 5 0 9 -12 10 -27z m445 3 c5 -23 -18 -96
-32 -96 -3 0 -3 8 1 18 4 9 7 36 7 60 0 45 14 57 24 18z m-68 -48 c-1 -61 -1
-61 -7 -18 -4 25 -5 53 -3 63 8 34 12 16 10 -45z m-647 13 c16 -16 29 -34 29
-40 0 -6 -12 3 -28 20 -15 17 -43 34 -62 39 l-35 8 33 1 c25 1 41 -7 63 -28z
m1026 22 c-15 -2 -43 -20 -62 -40 -19 -20 -35 -31 -35 -25 0 6 14 24 31 41 22
23 39 31 62 30 31 -2 31 -2 4 -6z m-833 -24 c-3 -5 -10 -7 -15 -3 -5 3 -7 10
-3 15 3 5 10 7 15 3 5 -3 7 -10 3 -15z m591 12 c3 -5 1 -12 -5 -16 -5 -3 -10
1 -10 9 0 18 6 21 15 7z m-908 -23 c-3 -8 -6 -5 -6 6 -1 11 2 17 5 13 3 -3 4
-12 1 -19z m1221 -14 c-3 -14 -5 -12 -10 9 -3 19 -2 25 4 19 6 -6 8 -18 6 -28z
m-929 -94 c-1 -19 -3 -26 -6 -15 -10 45 -12 48 -29 34 -8 -7 -21 -26 -29 -43
-9 -21 -14 -25 -14 -13 -1 25 25 74 46 86 23 12 33 -3 32 -49z m685 18 c9 -12
16 -34 16 -48 0 -21 -4 -18 -20 18 -22 49 -34 53 -48 15 -8 -22 -11 -24 -11
-8 0 11 2 30 5 42 5 18 10 21 25 13 10 -6 25 -20 33 -32z m-855 18 c27 -15 60
-46 47 -46 -4 0 -19 9 -34 20 -15 11 -47 24 -72 29 l-45 9 38 1 c21 1 50 -5
66 -13z m1061 9 c-8 -2 -32 -6 -52 -10 -21 -3 -52 -18 -69 -33 -29 -24 -31
-24 -20 -4 17 32 60 51 111 50 25 0 38 -2 30 -3z m47 -37 c-3 -7 -5 -2 -5 12
0 14 2 19 5 13 2 -7 2 -19 0 -25z m-482 -37 c-8 -17 -18 -31 -21 -31 -2 0 2
13 11 30 8 16 16 37 16 47 1 16 2 16 6 1 2 -9 -3 -30 -12 -47z m-768 27 c-3
-8 -6 -5 -6 6 -1 11 2 17 5 13 3 -3 4 -12 1 -19z m8 -43 c34 -17 96 -75 78
-75 -5 0 -18 9 -29 21 -20 23 -64 47 -104 60 -25 7 -25 7 -2 8 13 1 39 -6 57
-14z m158 4 c29 -15 77 -60 77 -72 0 -5 -17 6 -38 24 -21 19 -47 39 -58 46
-24 15 -10 17 19 2z m168 -23 c-9 -18 -18 -29 -19 -24 -4 8 24 58 32 58 2 0
-4 -15 -13 -34z m599 -19 c0 -12 0 -11 -24 28 l-17 30 20 -24 c12 -13 21 -28
21 -34z m166 40 c-11 -7 -37 -28 -59 -47 -30 -26 -37 -29 -29 -13 12 21 53 55
82 66 24 9 26 7 6 -6z m181 -1 c-39 -14 -55 -25 -99 -65 -16 -14 -28 -20 -28
-15 0 27 101 94 140 94 21 -1 19 -3 -13 -14z m-706 -124 c50 -20 94 -17 130 7
l34 23 -35 -31 c-71 -64 -75 -66 -112 -40 -47 31 -88 71 -100 94 -7 13 1 9 23
-12 19 -17 46 -36 60 -41z m2 -73 c9 -7 -59 -89 -74 -89 -10 0 -35 86 -44 155
l-7 50 59 -54 c32 -30 62 -58 66 -62z m213 59 c-8 -61 -26 -129 -37 -142 -5
-5 -25 10 -47 34 l-39 44 61 58 c34 31 63 57 65 58 2 0 1 -24 -3 -52z m37 -25
c-8 -52 -13 -54 -13 -5 0 23 4 42 9 42 6 0 7 -17 4 -37z m-393 -8 c0 -19 -2
-35 -4 -35 -2 0 -6 16 -8 35 -2 19 0 35 4 35 4 0 8 -16 8 -35z m-433 -37 c-2
-13 -4 -5 -4 17 -1 22 1 32 4 23 2 -10 2 -28 0 -40z m367 4 c-9 -20 -18 -43
-21 -49 -6 -15 -23 -17 -23 -3 0 5 10 30 22 54 26 53 45 51 22 -2z m556 -44
c0 -10 -3 -18 -7 -18 -10 0 -43 79 -43 100 0 21 49 -61 50 -82z m337 30 c-2
-13 -4 -3 -4 22 0 25 2 35 4 23 2 -13 2 -33 0 -45z m-1162 37 c-22 -8 -45 -22
-52 -32 -7 -9 -13 -11 -13 -5 0 24 40 52 73 52 l32 -1 -40 -14z m1097 -2 c10
-9 18 -21 18 -26 0 -6 -9 -2 -20 8 -10 9 -34 21 -52 25 l-33 8 34 1 c19 1 43
-6 53 -16z m-902 -18 c0 -7 -138 -75 -152 -75 -7 1 21 19 62 40 74 38 90 45
90 35z m746 -32 c42 -20 73 -38 67 -40 -11 -4 -153 63 -153 72 0 8 5 6 86 -32z
m-599 -5 c-3 -8 -6 -5 -6 6 -1 11 2 17 5 13 3 -3 4 -12 1 -19z m358 -62 c-9
-42 -22 -79 -27 -82 -6 -4 -8 -1 -5 7 3 8 13 47 23 86 23 96 31 86 9 -11z
m-175 69 c0 -2 -10 -10 -22 -16 -21 -11 -22 -11 -9 4 13 16 31 23 31 12z
m-146 -154 c-4 -4 -9 8 -23 64 -18 69 -11 73 9 5 10 -36 17 -67 14 -69z m-346
82 c44 -25 86 -79 75 -96 -3 -5 -12 5 -20 21 -25 52 -85 85 -162 91 -53 4 -60
6 -36 12 44 10 94 0 143 -28z m1132 27 l25 -8 -28 -1 c-16 -1 -38 -6 -49 -12
-16 -8 -19 -8 -13 1 5 9 1 10 -16 5 -42 -12 -98 -54 -114 -85 -17 -33 -25 -38
-25 -16 0 21 48 74 84 93 55 29 96 36 136 23z m-1199 -52 c42 -14 129 -68 111
-68 -7 0 -29 8 -50 18 -20 11 -58 25 -85 32 -26 7 -50 17 -53 21 -8 13 37 11
77 -3z m509 -3 c19 -23 3 -55 -30 -55 -22 0 -29 6 -34 25 -4 14 -4 30 -1 35 9
15 51 12 65 -5z m165 5 c3 -5 3 -21 -1 -35 -5 -19 -13 -25 -34 -25 -32 0 -50
38 -26 55 18 14 54 16 61 5z m500 -11 c-22 -10 -45 -19 -52 -19 -6 0 -33 -9
-59 -20 -65 -28 -66 -19 -2 18 60 33 79 40 123 40 30 0 30 0 -10 -19z m-865
-19 c-37 -28 -50 -24 -15 5 16 13 32 22 34 19 3 -3 -5 -14 -19 -24z m530 -4
c7 -9 9 -16 4 -16 -11 1 -54 36 -54 44 0 10 35 -11 50 -28z m-905 -36 c10 -11
16 -20 13 -20 -3 0 -13 9 -23 20 -10 11 -16 20 -13 20 3 0 13 -9 23 -20z
m1270 0 c-3 -5 -16 -15 -28 -21 -19 -9 -19 -8 3 10 28 23 34 26 25 11z m-452
-27 c-100 -2 -266 -2 -370 0 -103 1 -21 2 182 2 204 0 288 -1 188 -2z m-733
-253 l79 0 68 -52 c37 -28 95 -64 128 -80 33 -16 49 -26 35 -22 -39 10 -131
62 -182 105 -46 39 -47 39 -132 39 l-86 0 2 123 2 122 3 -117 4 -118 79 0z
m180 168 c6 -24 15 -56 20 -72 14 -41 13 -46 -10 -46 -12 0 -20 7 -20 16 0 11
-5 14 -16 10 -9 -3 -20 -6 -25 -6 -4 0 -6 -7 -3 -15 5 -11 -1 -15 -21 -15 -17
0 -25 4 -22 13 3 6 13 45 23 85 15 63 20 72 40 72 19 0 25 -8 34 -42z m138 30
c15 -15 16 -70 0 -86 -9 -9 -8 -16 5 -30 23 -25 21 -32 -6 -32 -14 0 -26 9
-32 23 -11 25 -31 21 -28 -5 2 -11 -4 -18 -15 -18 -15 0 -17 10 -17 80 l0 80
41 0 c22 0 45 -5 52 -12z m74 -63 c-3 -62 -6 -75 -20 -75 -14 0 -17 12 -17 75
0 68 2 75 20 75 19 0 20 -6 17 -75z m116 63 c7 -7 12 -35 12 -63 0 -59 -12
-75 -55 -75 -43 0 -55 16 -55 75 0 59 12 75 55 75 17 0 36 -5 43 -12z m179 0
c14 -17 14 -110 1 -125 -6 -7 -30 -13 -54 -13 l-44 0 0 75 0 75 44 0 c24 0 48
-6 53 -12z m121 0 c9 -9 12 -9 12 0 0 8 18 12 50 12 52 0 64 -12 31 -29 -15
-8 -19 -22 -20 -66 0 -30 3 -55 8 -55 9 0 41 105 41 134 0 13 7 17 27 14 24
-3 28 -10 49 -85 l22 -83 -24 0 c-14 0 -24 6 -24 14 0 8 -7 17 -16 20 -22 9
-24 8 -24 -9 0 -11 -12 -15 -45 -15 l-45 0 0 65 c0 37 -4 65 -10 65 -5 0 -10
-21 -10 -47 0 -54 -20 -83 -58 -83 -43 0 -62 27 -62 85 0 59 12 75 55 75 17 0
36 -5 43 -12z m372 -98 l0 -110 -85 0 -85 0 -58 -47 c-83 -68 -238 -134 -307
-132 -11 0 12 8 50 18 91 23 172 62 252 122 l64 49 80 0 79 0 0 105 c0 58 2
105 5 105 3 0 5 -49 5 -110z m-1120 90 c19 -12 20 -111 1 -134 -8 -10 -29 -16
-55 -16 l-41 0 0 80 0 80 40 0 c22 0 47 -5 55 -10z m1070 -9 c12 -23 -5 -40
-23 -22 -14 14 -47 15 -47 1 0 -5 17 -18 38 -27 40 -19 53 -52 32 -79 -15 -17
-71 -19 -88 -2 -17 17 -15 38 3 38 8 0 15 -4 15 -10 0 -5 11 -10 25 -10 37 0
30 17 -15 40 -42 21 -53 53 -28 78 20 20 76 15 88 -7z m-533 -193 c-3 -7 -5
-2 -5 12 0 14 2 19 5 13 2 -7 2 -19 0 -25z m-353 7 c-4 -8 -8 -15 -10 -15 -2
0 -4 7 -4 15 0 8 4 15 10 15 5 0 7 -7 4 -15z m597 -8 c-1 -12 -15 -9 -19 4 -3
6 1 10 8 8 6 -3 11 -8 11 -12z m-559 -12 c0 -5 -5 -11 -11 -13 -6 -2 -11 4
-11 13 0 9 5 15 11 13 6 -2 11 -8 11 -13z m39 -9 c5 3 9 0 9 -5 0 -6 -7 -11
-15 -11 -8 0 -15 8 -14 18 0 10 3 12 6 4 2 -6 9 -10 14 -6z m489 4 c0 -5 -2
-10 -4 -10 -3 0 -8 5 -11 10 -3 6 -1 10 4 10 6 0 11 -4 11 -10z m92 -5 c0 -5
-5 -11 -11 -13 -6 -2 -11 4 -11 13 0 9 5 15 11 13 6 -2 11 -8 11 -13z m-662
-15 c0 -5 -4 -12 -10 -15 -5 -3 -10 -1 -10 5 0 6 -4 8 -10 5 -5 -3 -7 0 -4 9
6 15 34 11 34 -4z m540 -1 c0 -6 -4 -7 -10 -4 -5 3 -10 11 -10 16 0 6 5 7 10
4 6 -3 10 -11 10 -16z m-400 1 c8 -5 11 -13 6 -17 -5 -4 -11 -3 -13 4 -2 7
-11 9 -20 6 -11 -4 -14 -2 -9 5 9 14 16 15 36 2z m485 -9 c-3 -6 -11 -8 -17
-5 -6 4 -5 9 3 15 16 10 23 4 14 -10z m-135 -1 c0 -5 -7 -10 -15 -10 -8 0 -15
5 -15 10 0 6 7 10 15 10 8 0 15 -4 15 -10z m-420 -26 c0 -8 -7 -14 -15 -14
-15 0 -21 21 -9 33 10 9 24 -2 24 -19z m120 14 c0 -4 -7 -8 -15 -8 -8 0 -15 4
-15 8 0 5 7 9 15 9 8 0 15 -4 15 -9z m30 2 c0 -5 -2 -10 -4 -10 -3 0 -8 5 -11
10 -3 6 -1 10 4 10 6 0 11 -4 11 -10z m26 -17 c-10 -10 -19 5 -10 18 6 11 8
11 12 0 2 -7 1 -15 -2 -18z m182 8 c3 -8 -1 -12 -9 -9 -7 2 -15 10 -17 17 -3
8 1 12 9 9 7 -2 15 -10 17 -17z m139 4 c0 -8 -4 -12 -9 -9 -5 3 -6 10 -3 15 9
13 12 11 12 -6z m-277 -5 c0 -5 -4 -10 -10 -10 -5 0 -10 5 -10 10 0 6 5 10 10
10 6 0 10 -4 10 -10z m47 -12 c-3 -8 -6 -5 -6 6 -1 11 2 17 5 13 3 -3 4 -12 1
-19z m53 14 c0 -5 -7 -9 -15 -9 -8 0 -15 4 -15 9 0 4 7 8 15 8 8 0 15 -4 15
-8z m-299 -25 c-10 -9 -11 -8 -5 6 3 10 9 15 12 12 3 -3 0 -11 -7 -18z m443 7
c4 -10 1 -14 -6 -12 -15 5 -23 28 -10 28 5 0 13 -7 16 -16z m-403 -1 c-11 -5
-11 -7 0 -14 11 -7 10 -9 -3 -9 -10 0 -18 7 -18 15 0 8 8 15 18 14 12 0 13 -2
3 -6z m358 -22 c-15 -5 -22 6 -14 19 6 9 10 9 16 -1 5 -8 4 -15 -2 -18z m-289
10 c0 -6 -4 -13 -10 -16 -5 -3 -10 1 -10 9 0 9 5 16 10 16 6 0 10 -4 10 -9z
m254 -6 c3 -9 0 -15 -9 -15 -8 0 -15 7 -15 15 0 8 4 15 9 15 5 0 11 -7 15 -15z
m-214 -16 c0 -5 -7 -9 -15 -9 -15 0 -20 12 -9 23 8 8 24 -1 24 -14z m120 6 c0
-8 -9 -15 -20 -15 -11 0 -20 5 -20 11 0 6 7 9 15 5 8 -3 15 -1 15 4 0 6 2 10
5 10 3 0 5 -7 5 -15z m50 -6 c0 -5 -7 -9 -15 -9 -15 0 -20 12 -9 23 8 8 24 -1
24 -14z m-136 -4 c3 -8 1 -15 -4 -15 -6 0 -10 7 -10 15 0 8 2 15 4 15 2 0 6
-7 10 -15z m-124 -35 c20 -6 21 -8 5 -8 -11 0 -29 3 -40 8 -25 11 1 11 35 0z
m73 -17 c-7 -2 -21 -2 -30 0 -10 3 -4 5 12 5 17 0 24 -2 18 -5z m114 -10 c-20
-2 -52 -2 -70 0 -17 2 0 4 38 4 39 0 53 -2 32 -4z"/>
<path d="M800 1275 c-10 -13 -9 -15 10 -15 19 0 20 -2 10 -15 -7 -9 -10 -19
-6 -22 4 -4 11 -2 15 6 7 10 10 9 14 -3 8 -21 33 -20 41 1 5 12 9 14 18 5 7
-7 16 -12 21 -12 13 0 -3 43 -21 58 -22 17 -87 15 -102 -3z"/>
<path d="M860 1077 c0 -29 136 -37 169 -9 21 16 19 17 -73 17 -53 0 -96 -3
-96 -8z"/>
<path d="M920 1020 c0 -5 16 -10 35 -10 19 0 35 5 35 10 0 6 -16 10 -35 10
-19 0 -35 -4 -35 -10z"/>
<path d="M548 506 c-4 -18 -1 -26 8 -26 16 0 18 18 5 38 -6 10 -10 7 -13 -12z"/>
<path d="M667 543 c-9 -19 0 -38 18 -38 13 0 21 8 23 23 3 16 -2 22 -17 22
-11 0 -22 -3 -24 -7z"/>
<path d="M857 543 c-4 -3 -7 -24 -7 -45 0 -34 3 -38 25 -38 23 0 25 4 25 45 0
37 -3 45 -18 45 -10 0 -22 -3 -25 -7z"/>
<path d="M1035 540 c-8 -12 20 -24 35 -15 5 3 10 10 10 16 0 12 -37 12 -45 -1z"/>
<path d="M1030 475 c0 -9 9 -15 25 -15 16 0 25 6 25 15 0 9 -9 15 -25 15 -16
0 -25 -6 -25 -15z"/>
<path d="M1159 548 c-1 -2 -3 -22 -4 -45 -2 -30 1 -43 12 -47 25 -10 33 3 33
50 0 37 -3 44 -20 44 -11 0 -21 -1 -21 -2z"/>
<path d="M1360 500 c0 -11 5 -20 10 -20 6 0 10 9 10 20 0 11 -4 20 -10 20 -5
0 -10 -9 -10 -20z"/>
<path d="M410 490 c0 -43 3 -50 20 -50 17 0 20 7 20 50 0 43 -3 50 -20 50 -17
0 -20 -7 -20 -50z"/>
</g>
</svg>
